<svg width="100" height="100" viewBox="0 0 100 100" fill="none" xmlns="http://www.w3.org/2000/svg">
<circle cx="50" cy="50" r="50" fill="#FAFAFA"/>
<circle cx="49.1228" cy="50.8772" r="40.3509" fill="#F4F4F4"/>
<path d="M72.9168 47.9169C74.0667 47.9169 75 46.9858 75 45.8337C75 44.6815 74.0667 43.7504 72.9168 43.7504H70.8335V39.5835H72.9168C74.0667 39.5835 75 38.6524 75 37.5003C75 36.3481 74.0667 35.417 72.9168 35.417H69.9628C68.9106 33.0192 66.9816 31.0898 64.5835 30.0377V27.0833C64.5835 25.9311 63.6502 25 62.5003 25C61.3503 25 60.417 25.9311 60.417 27.0833V29.1665H56.2502V27.0833C56.2502 25.9311 55.317 25 54.167 25C53.017 25 52.0838 25.9311 52.0838 27.0833V29.1665H47.917V27.0833C47.917 25.9311 46.9837 25 45.8337 25C44.6837 25 43.7505 25.9311 43.7505 27.0833V29.1665H39.5837V27.0833C39.5837 25.9311 38.6504 25 37.5004 25C36.3505 25 35.4172 25.9311 35.4172 27.0833V30.0373C33.0195 31.0895 31.0901 33.0185 30.038 35.4167H27.0832C25.9333 35.4167 25 36.3478 25 37.4999C25 38.652 25.9333 39.5832 27.0832 39.5832H29.1665V43.75H27.0832C25.9333 43.75 25 44.6812 25 45.8333C25 46.9854 25.9333 47.9166 27.0832 47.9166H29.1665V52.0834H27.0832C25.9333 52.0834 25 53.0146 25 54.1667C25 55.3188 25.9333 56.25 27.0832 56.25H29.1665V60.4168H27.0832C25.9333 60.4168 25 61.348 25 62.5001C25 63.6522 25.9333 64.5833 27.0832 64.5833H30.0372C31.0894 66.9811 33.0184 68.9105 35.4165 69.9627V72.9167C35.4165 74.0689 36.3498 75 37.4997 75C38.6497 75 39.583 74.0689 39.583 72.9167V70.8335H43.7498V72.9167C43.7498 74.0689 44.683 75 45.833 75C46.983 75 47.9162 74.0689 47.9162 72.9167V70.8335H52.0831V72.9167C52.0831 74.0689 53.0163 75 54.1663 75C55.3162 75 56.2495 74.0689 56.2495 72.9167V70.8335H60.4163V72.9167C60.4163 74.0689 61.3496 75 62.4996 75C63.6495 75 64.5828 74.0689 64.5828 72.9167V69.9627C66.9805 68.9105 68.9099 66.9815 69.962 64.5833H72.9161C74.066 64.5833 74.9993 63.6522 74.9993 62.5001C74.9993 61.348 74.066 60.4168 72.9161 60.4168H70.8328V56.25H72.9161C74.066 56.25 74.9993 55.3188 74.9993 54.1667C74.9993 53.0146 74.066 52.0834 72.9161 52.0834H70.8328V47.9166H72.9161L72.9168 47.9169ZM66.5325 60.3836C66.5325 63.5016 64.0051 66.029 60.8872 66.029H39.5162C36.3983 66.029 33.871 63.5016 33.871 60.3836V39.8188C33.871 36.7009 36.3983 34.1735 39.5162 34.1735H60.8872C64.0051 34.1735 66.5325 36.7009 66.5325 39.8188V60.3836Z" fill="url(#paint0_linear_86_149)"/>
<path d="M57.6515 38.5952H42.3487C40.1163 38.5952 38.3065 40.405 38.3065 42.6375V57.3627C38.3065 59.5952 40.1163 61.405 42.3487 61.405H57.6515C59.8839 61.405 61.6937 59.5952 61.6937 57.3627V42.6375C61.6937 40.405 59.8839 38.5952 57.6515 38.5952Z" fill="url(#paint1_linear_86_149)"/>
<defs>
<linearGradient id="paint0_linear_86_149" x1="50" y1="25" x2="50" y2="75" gradientUnits="userSpaceOnUse">
<stop stop-color="#ACCBB1"/>
<stop offset="1" stop-color="#ACCBB1"/>
</linearGradient>
<linearGradient id="paint1_linear_86_149" x1="50.0001" y1="38.5952" x2="50.0001" y2="61.405" gradientUnits="userSpaceOnUse">
<stop stop-color="#ACCBB1"/>
<stop offset="1" stop-color="#ACCBB1"/>
</linearGradient>
</defs>
</svg>
