<svg width="147" height="49" viewBox="0 0 147 49" fill="none" xmlns="http://www.w3.org/2000/svg">
<path d="M34.3174 25.7346C34.3174 26.3343 34.3174 26.9444 34.3174 27.5537C34.3174 27.8902 34.3496 28.2318 34.3087 28.563C34.2591 28.964 34.4279 29.181 34.7605 29.3614C35.3724 29.6927 35.9634 30.0614 36.5702 30.4022C36.7808 30.5207 36.8652 30.6698 36.8853 30.9164C37.0158 32.4993 37.1586 34.0804 37.3101 35.6615C37.4598 37.2278 37.6199 38.7924 37.781 40.357C37.962 42.1124 38.1492 43.8679 38.3355 45.6233C38.3807 46.053 38.4643 46.481 38.4678 46.9107C38.4695 47.1338 38.3755 47.384 38.2519 47.5749C38.0569 47.8747 37.821 48.1571 37.5608 48.4003C37.4406 48.5127 37.2204 48.5615 37.0446 48.5624C34.2094 48.5737 31.3743 48.5755 28.5383 48.5755C21.4736 48.5746 14.4098 48.5703 7.34502 48.5746C7.02991 48.5746 6.85669 48.4203 6.61818 48.2321C5.71724 47.5182 5.89308 46.6074 5.99753 45.6686C6.24997 43.3885 6.46759 41.1048 6.70697 38.8229C6.86713 37.2958 7.05167 35.7714 7.204 34.2434C7.3102 33.1765 7.39377 32.1071 7.45644 31.0367C7.47385 30.7465 7.57308 30.5756 7.81594 30.437C8.47315 30.064 9.1173 29.6691 9.77363 29.2935C10.0026 29.1627 10.0705 28.991 10.0626 28.7313C10.0426 28.1246 10.0565 27.518 10.0565 26.8704C8.03008 27.2774 6.04367 27.3532 4.06683 26.8337C3.73605 26.7466 3.41572 26.6211 3.07363 26.5086C3.19288 26.167 3.42443 26.0118 3.70385 25.9865C5.74771 25.8 7.52085 24.9371 9.18867 23.8092C9.36625 23.6889 9.50466 23.5129 9.66134 23.3621C9.46635 23.2488 9.2853 23.0901 9.07551 23.0282C7.48081 22.5558 5.86522 22.1453 4.28706 21.6223C3.53498 21.373 2.82119 20.9677 2.14658 20.5433C1.78533 20.3158 1.54508 19.8974 1.29178 19.5069C3.81527 20.4369 6.36574 20.7184 9.079 20.2425C4.92947 18.2831 2.2963 14.8995 0 11.1507C0.199337 10.9458 0.422178 10.8604 0.658945 11.0452C2.05605 12.1338 3.66381 12.8329 5.25502 13.5659C5.8217 13.8265 6.37967 14.1055 6.94286 14.3739C7.56786 14.6729 7.92998 14.502 8.0649 13.8196C8.15543 13.3611 8.17371 12.8869 8.28948 12.4363C8.36434 12.146 8.52364 11.861 8.70817 11.6222C8.85006 11.4383 8.87269 11.3241 8.76215 11.121C7.90212 9.54077 7.30585 7.86029 6.90021 6.11007C6.85408 5.91221 6.7975 5.70215 6.82013 5.50691C6.83928 5.34304 6.93155 5.13124 7.05951 5.05628C7.14481 5.0066 7.41466 5.11555 7.48952 5.22886C8.92579 7.38787 10.9688 8.88793 13.0283 10.3714C13.0866 10.4133 13.1458 10.4743 13.2102 10.4839C13.4087 10.5118 13.6707 10.6015 13.7926 10.5109C13.9162 10.4194 13.9841 10.1187 13.9371 9.94869C13.5549 8.58809 13.1432 7.2362 12.735 5.88345C12.3998 4.773 12.0464 3.66866 11.7235 2.55472C11.6451 2.28452 11.6512 1.98904 11.6112 1.63778C11.9472 2.01345 12.2049 2.37778 12.5356 2.65409C13.1232 3.14568 13.7438 3.60067 14.3723 4.03997C15.1227 4.56468 15.6589 5.23496 16.0253 6.07869C16.2769 6.65832 16.6294 7.19524 16.9637 7.73477C17.0273 7.83675 17.2396 7.93089 17.3441 7.89864C17.452 7.86551 17.58 7.67637 17.5826 7.55347C17.6035 6.51973 17.6061 5.48599 17.5991 4.45224C17.5904 3.13174 17.4016 1.80949 17.6488 0.492466C17.6679 0.387872 17.6766 0.272818 17.7297 0.186527C17.7776 0.107209 17.8786 0.0610135 17.9569 0C18.0074 0.0706014 18.0901 0.135973 18.1032 0.212676C18.4923 2.5277 19.2774 4.73029 20.0112 6.94683C20.248 7.6633 20.5056 8.3728 20.7607 9.0823C20.8208 9.24878 20.9017 9.4109 20.9931 9.56256C21.3187 10.1056 21.4118 10.1492 21.8114 9.64885C22.627 8.62818 23.4087 7.57701 24.1547 6.50404C25.3063 4.84796 26.4318 3.1727 27.2013 1.29087C27.2187 1.24816 27.257 1.2133 27.351 1.08604C27.4677 1.29872 27.6409 1.46781 27.6426 1.63865C27.6531 3.28514 27.6835 4.93425 27.6122 6.57813C27.5173 8.76328 27.3345 10.9441 27.1996 13.1275C27.1874 13.3236 27.25 13.5241 27.277 13.7219C27.4093 13.5738 27.5834 13.4456 27.6679 13.2739C28.6202 11.3215 29.5359 9.35163 30.5082 7.40966C31.3412 5.7466 32.2265 4.1097 33.11 2.47279C33.2354 2.24007 33.4826 2.07272 33.6732 1.87573C33.7263 1.89491 33.7794 1.91408 33.8317 1.93239C33.8491 2.14419 33.917 2.36558 33.8769 2.56518C33.1788 6.0168 32.6661 9.50852 31.6442 12.8895C31.6163 12.9811 31.5571 13.0708 31.5563 13.1615C31.5545 13.3044 31.5441 13.4883 31.6242 13.5781C31.6825 13.6435 31.8966 13.6226 32.0115 13.5729C32.2631 13.4631 32.4972 13.3132 32.7357 13.1746C34.542 12.1304 36.3456 11.0827 38.157 10.0472C38.2676 9.98356 38.5218 9.96787 38.5618 10.0289C38.6367 10.1413 38.6671 10.3601 38.6062 10.476C37.2735 13.0107 35.8303 15.4756 33.9675 17.6678C33.8665 17.7863 33.7333 17.8796 33.6436 18.0051C33.5914 18.0783 33.5462 18.2369 33.5844 18.2788C33.6506 18.3511 33.7864 18.3982 33.8865 18.3886C33.9971 18.3773 34.1128 18.3067 34.2034 18.2343C36.034 16.7778 38.171 16.0779 40.4411 15.7267C42.2778 15.4425 44.1189 15.1915 45.9599 14.9422C46.1001 14.923 46.3786 15.0189 46.383 15.0773C46.3969 15.2569 46.3673 15.5044 46.2506 15.6203C45.0581 16.8075 43.8525 17.9737 42.2709 18.6649C40.0198 19.6481 37.781 20.6574 35.4325 21.3966C35.1583 21.4829 34.8788 21.5543 34.6099 21.6563C34.3539 21.7531 34.3 21.9779 34.5115 22.1174C36.1097 23.1738 37.5721 24.4568 39.3783 25.1655C40.0042 25.4113 40.6962 25.4932 41.363 25.6248C41.5815 25.6684 41.8052 25.6588 41.867 25.929C41.9305 26.2036 41.7555 26.3491 41.5492 26.4746C39.9911 27.4212 38.359 27.5284 36.6859 26.8512C35.8921 26.5287 35.1304 26.1208 34.3174 25.7346ZM32.0785 32.7573C32.5425 32.8026 32.6757 33.2384 33.0082 33.4834C32.6652 33.8233 32.3614 34.1283 32.0516 34.4273C31.9079 34.5659 31.867 34.6792 32.1604 34.7864C32.4894 34.4291 32.8358 34.0525 33.1805 33.6786C33.5287 34.0194 33.8491 34.3227 34.1563 34.6382C34.3052 34.7908 34.4062 34.7986 34.5637 34.5136C34.1781 34.1772 33.7925 33.8398 33.446 33.5374C33.7124 33.2323 33.9396 32.9726 34.219 32.6527C34.5489 33.0074 34.8501 33.3299 35.1504 33.6524C35.2941 33.8059 35.409 33.8111 35.5595 33.5078C35.167 33.1626 34.7735 32.8183 34.3783 32.4714C34.5454 32.2866 34.6717 32.1472 34.7979 32.0077C34.7831 31.9781 34.7674 31.9493 34.7526 31.9197C34.5602 31.9946 34.367 32.0687 34.1572 32.1506C33.8021 31.7846 33.332 32.019 32.9064 31.9554C32.7958 32.4069 32.7627 32.4418 32.3771 32.6056C32.2753 32.6483 32.1821 32.7111 32.0855 32.7643C31.538 32.8157 31.2594 33.2445 30.8512 33.6498C31 33.6812 31.141 33.7501 31.1785 33.7135C31.4892 33.4058 31.7808 33.0789 32.0785 32.7573ZM12.1422 31.6634C12.1326 31.6913 12.123 31.7183 12.1143 31.7462C12.184 31.795 12.2475 31.8578 12.3241 31.8909C13.2007 32.2735 14.0798 32.6492 14.9573 33.031C16.5798 33.737 18.2006 34.4474 19.8241 35.1525C20.2288 35.3286 20.5004 35.6458 20.5422 36.0599C20.6127 36.7502 20.6075 37.4492 20.6188 38.1457C20.6545 40.4424 20.6832 42.7382 20.7163 45.035C20.718 45.1404 20.7311 45.245 20.7407 45.3697C21.7043 45.3697 22.6444 45.3697 23.6071 45.3697C23.6158 45.2311 23.6271 45.1134 23.6298 44.9949C23.6489 43.8652 23.6654 42.7347 23.6863 41.6051C23.7194 39.8139 23.7595 38.0228 23.7882 36.2316C23.796 35.7313 24.0519 35.3783 24.4724 35.1917C26.9645 34.0856 29.4663 33.0013 31.9636 31.9083C32.0585 31.8665 32.143 31.802 32.2317 31.7479C32.2213 31.7201 32.2117 31.6922 32.2013 31.6643C25.5143 31.6634 18.8283 31.6634 12.1422 31.6634ZM27.7314 31.1701C27.2413 30.7177 26.8157 30.3481 26.4231 29.9454C26.3091 29.8286 26.2899 29.6203 26.2281 29.453C26.3691 29.4007 26.5084 29.3092 26.652 29.3031C27.1621 29.2804 27.1856 29.2813 27.1761 28.767C27.1708 28.4593 27.2657 28.3268 27.5921 28.3565C28.0718 28.3992 28.0813 28.3617 28.0683 27.8649C28.0648 27.7455 28.1884 27.518 28.2563 27.5171C29.2399 27.5049 30.2236 27.5223 31.2072 27.5337C31.2185 27.5337 31.2324 27.5389 31.2403 27.5467C31.3099 27.6191 31.4152 27.6827 31.4361 27.7681C31.4518 27.8326 31.3717 27.9756 31.3125 27.9895C31.2263 28.0096 31.0966 27.9721 31.0279 27.9111C30.9086 27.8056 30.8224 27.6627 30.6858 27.4883C30.6127 27.6696 30.5456 27.7559 30.5517 27.837C30.57 28.0793 30.9661 28.3852 31.2368 28.3896C31.5119 28.394 31.7556 28.1769 31.8035 27.884C31.8574 27.5572 31.6981 27.294 31.3604 27.2042C31.1767 27.1554 30.9817 27.1371 30.7911 27.1353C29.9981 27.1275 29.2051 27.117 28.4121 27.1379C28.1092 27.1458 28.0457 27.0194 28.0422 26.7579C28.0378 26.4781 28.1214 26.3265 28.4295 26.3343C28.91 26.3465 29.3905 26.3378 29.871 26.3369C30.3036 26.336 30.738 26.3596 31.168 26.3221C31.4753 26.2951 31.7556 26.1565 31.8052 25.7913C31.8426 25.5159 31.7469 25.2823 31.4918 25.1602C31.1706 25.006 30.899 25.1367 30.7023 25.3956C30.624 25.4993 30.6257 25.664 30.5918 25.8017C30.7163 25.7468 30.8399 25.6902 30.9652 25.6361C31.0862 25.5838 31.2055 25.5237 31.3317 25.4932C31.3482 25.4897 31.4535 25.6823 31.4283 25.7137C31.3491 25.8148 31.2351 25.8968 31.1202 25.9578C31.0523 25.9935 30.9556 25.9804 30.8712 25.9813C30.1626 25.9839 29.4532 25.9952 28.7446 25.9813C28.117 25.9691 28.1162 26.1025 28.0352 25.3459C28.0326 25.325 28.0134 25.3058 28.0021 25.2875C27.3467 25.2029 27.3345 25.2029 27.3545 24.4917C27.3632 24.1988 27.2875 24.0725 26.9732 24.096C26.6268 24.1213 26.276 24.1169 25.9295 24.0899C25.8199 24.0812 25.691 23.9783 25.6275 23.8807C25.6014 23.8406 25.7137 23.6968 25.7781 23.6122C25.8312 23.5425 25.9069 23.4911 26.0157 23.3926C25.8817 23.3856 25.8129 23.376 25.7441 23.3795C25.449 23.3943 25.1531 23.4388 24.8606 23.424C24.3261 23.3969 23.7908 23.2758 23.2607 23.3011C22.311 23.3464 21.3631 23.4623 20.4177 23.5704C20.2724 23.587 20.0774 23.6881 20.013 23.8075C19.7144 24.3627 19.3993 24.9197 19.1947 25.5124C18.9762 26.1426 19.0276 26.1591 18.3373 26.1844C18.3051 26.1853 18.2738 26.2123 18.2128 26.2402C18.2128 26.6455 18.2128 27.0595 18.2128 27.4857C18.3469 27.4962 18.4557 27.5223 18.5601 27.5093C18.9667 27.4587 19.1643 27.6365 19.3314 28.0165C19.9546 29.4382 22.1474 29.8408 23.2955 28.7714C23.924 28.1865 24.1233 27.0107 23.7133 26.3116C23.4861 25.9255 23.0779 25.7495 22.6714 25.8628C22.2605 25.9778 22.1099 26.2262 22.1343 26.7509C22.1395 26.859 22.1526 26.9662 22.1587 27.0743C22.1813 27.4622 22.0081 27.6914 21.6338 27.7707C21.1002 27.8841 20.6284 27.5659 20.4804 26.9924C20.0782 25.4331 21.4727 23.9661 23.0683 24.2729C23.9675 24.4455 24.6621 24.9014 25.0721 25.7442C25.2584 26.1277 25.5074 26.4093 25.9922 26.3256C26.1794 26.2933 26.2507 26.3892 26.2464 26.5731C26.2394 26.8494 26.2359 27.1266 26.2481 27.4029C26.2586 27.6356 26.1602 27.7516 25.933 27.7202C25.5448 27.6661 25.3777 27.8352 25.2976 28.2127C25.0521 29.3658 24.502 30.2906 23.326 30.7282C23.1806 30.7822 23.0822 30.9626 22.8951 31.1526C23.6855 31.1526 24.3409 31.1526 25.0034 31.1526C25.0095 31.0864 25.006 31.0367 25.0199 30.9931C25.0626 30.8554 25.1113 30.7186 25.1574 30.5817C25.2715 30.668 25.3864 30.7543 25.5004 30.8406C25.6466 30.9504 25.7877 31.1448 25.9409 31.1552C26.498 31.1927 27.0611 31.1701 27.7314 31.1701ZM24.4663 18.3049C25.0347 17.8177 25.4212 17.2206 25.6562 16.5312C26.1533 15.0721 26.2481 13.5467 26.3804 12.0284C26.5606 9.97135 26.7417 7.91433 26.9315 5.8573C26.9933 5.18789 27.0925 4.52197 27.1482 3.8517C27.1586 3.72793 27.0394 3.5937 26.9793 3.46383C26.8653 3.54663 26.7138 3.60677 26.6451 3.71834C26.5215 3.91968 26.4658 4.16287 26.3491 4.37031C25.6701 5.58361 24.986 6.79342 24.2965 8.00062C22.8141 10.5963 22.0046 13.3306 22.5878 16.3473C22.6191 16.5111 22.7367 16.7534 22.8585 16.7839C23.1223 16.8511 23.1171 16.5704 23.1649 16.3961C23.4426 15.385 23.4113 14.3486 23.4069 13.3158C23.4052 12.9078 23.4426 12.5113 23.6672 12.1609C23.7107 12.1626 23.7542 12.1652 23.7986 12.167C23.7986 13.8884 23.7986 15.6099 23.7986 17.3322C23.8422 17.3331 23.8857 17.3339 23.9292 17.3348C24.8441 15.0843 24.6073 12.6202 25.1792 10.3061C25.5613 13.0299 24.8519 15.6482 24.4663 18.3049ZM28.5801 15.0024C28.6106 15.0154 28.6411 15.0285 28.6724 15.0416C28.4635 15.616 28.2641 16.1947 28.0422 16.7639C27.2561 18.7869 26.256 20.6749 24.6073 22.147C24.5368 22.2098 24.4445 22.2882 24.4332 22.3693C24.4158 22.4939 24.4236 22.6543 24.4915 22.7467C24.529 22.7981 24.7431 22.7877 24.8214 22.7302C25.0521 22.5602 25.2549 22.3519 25.4699 22.1601C27.9351 19.9567 29.5846 17.2442 30.4168 14.0505C31.1471 11.2465 31.8165 8.42684 32.5051 5.6115C32.5677 5.35699 32.573 5.08766 32.6043 4.8253C32.5556 4.81048 32.5068 4.79479 32.4581 4.77997C32.3118 5.08417 32.1482 5.38139 32.0228 5.6943C31.6442 6.64001 31.316 7.60752 30.9043 8.53841C29.441 11.8436 27.5826 14.9291 25.5692 17.9214C25.174 18.5089 24.9947 19.0937 25.0939 19.7745C25.12 19.954 25.2027 20.1257 25.2593 20.3018C25.449 20.1972 25.6458 20.1031 25.8242 19.9819C25.8973 19.9322 25.9382 19.8294 25.9853 19.7457C26.4797 18.8558 26.9767 17.9667 27.465 17.0733C27.8428 16.3865 28.2093 15.6935 28.5801 15.0024ZM18.1615 18.6065C18.4931 19.1147 18.7595 19.567 19.0711 19.9854C19.3131 20.3097 19.6021 20.6025 19.8937 20.8841C19.9599 20.9477 20.1496 20.952 20.2375 20.9024C20.3011 20.8666 20.3098 20.6975 20.3063 20.5886C20.3037 20.5119 20.2454 20.4334 20.201 20.3628C19.2983 18.9473 18.6777 17.4037 18.1449 15.8208C17.7819 14.7426 17.4468 13.6548 17.0795 12.5784C16.8993 12.0502 16.4928 11.7852 15.9418 11.7216C15.4308 11.6623 15.0617 11.8828 14.7736 12.2803C14.5551 12.581 14.3427 12.8861 14.119 13.1833C13.8526 13.5354 13.837 13.9024 14.0955 14.2475C15.0582 15.534 15.5109 17.0324 15.9514 18.5464C16.1028 19.065 16.3962 19.5444 16.6486 20.0299C16.6904 20.1109 16.8549 20.1284 16.9637 20.1746C16.9698 20.0639 17.0081 19.9436 16.9776 19.8442C16.8836 19.5348 16.7522 19.2376 16.6547 18.929C16.2656 17.6965 15.8948 16.4588 15.4926 15.2307C15.3855 14.9039 15.1836 14.6093 15.0417 14.2929C15.0052 14.21 15.0304 14.0994 15.0278 14.0017C15.127 14.0375 15.2619 14.0444 15.3185 14.115C15.4674 14.3007 15.6206 14.4986 15.705 14.7173C16.0149 15.5192 16.3169 16.3246 16.5859 17.1413C16.9959 18.3869 17.4094 19.6272 18.2973 20.6348C18.4209 20.7742 18.5776 20.8841 18.7194 21.007C18.7604 20.9738 18.8013 20.9407 18.8431 20.9085C18.6785 20.586 18.5158 20.2626 18.3486 19.941C18.1467 19.5566 17.936 19.1748 18.1615 18.6065ZM36.2855 18.9264C36.3081 18.9726 36.3316 19.0188 36.3543 19.0659C35.9486 19.3282 35.5604 19.6254 35.1321 19.8433C34.5681 20.131 33.9692 20.348 33.3947 20.6165C33.2807 20.6696 33.2084 20.8143 33.117 20.9172C33.2502 20.9425 33.3947 21.0165 33.5139 20.9869C35.7476 20.4343 37.9316 19.7265 40.0129 18.7425C41.43 18.0731 42.8114 17.327 44.199 16.5974C44.3234 16.532 44.3765 16.3298 44.4636 16.1912C44.3121 16.159 44.1572 16.0893 44.0092 16.1006C42.9333 16.1851 41.86 16.2889 40.7841 16.3813C39.6055 16.4815 38.4556 16.7011 37.3893 17.2389C35.5822 18.1507 33.7786 19.0685 31.9767 19.9906C31.8696 20.0456 31.7922 20.158 31.7016 20.2434C31.7277 20.2887 31.753 20.3341 31.7791 20.3785C33.2807 19.8948 34.7831 19.411 36.2855 18.9264ZM21.8932 18.2073C21.9428 18.2003 21.9924 18.1934 22.042 18.1864C22.042 17.8334 22.0986 17.469 22.0316 17.1282C21.8044 15.9646 21.6059 14.7888 21.2673 13.6566C20.4377 10.8822 19.5394 8.12874 18.6585 5.37093C18.6037 5.2001 18.4592 5.05802 18.3565 4.90287C18.2947 5.09289 18.1824 5.28203 18.1771 5.47466C18.104 8.30917 18.3469 11.1193 18.9075 13.8963C19.166 15.1749 19.5081 16.437 19.8328 17.7018C19.8867 17.9127 20.0478 18.0957 20.1583 18.2919C20.1966 18.2727 20.2341 18.2526 20.2724 18.2335C20.0286 15.9786 19.3592 13.7795 19.3462 11.4923C20.2001 13.6383 20.2706 15.9925 21.1298 18.1411C21.4814 17.4438 20.8147 16.7325 21.1576 16.0431C21.1942 16.0335 21.2316 16.0248 21.2682 16.0152C21.4771 16.7456 21.6851 17.4769 21.8932 18.2073ZM12.419 31.1701C13.938 31.1701 15.4143 31.1718 16.8906 31.1666C16.9802 31.1666 17.0908 31.1448 17.157 31.0907C17.6401 30.6959 18.1162 30.2915 18.5915 29.887C18.776 29.7301 18.7064 29.6011 18.5097 29.5584C18.3129 29.5157 18.1058 29.5244 17.9021 29.5166C17.627 29.5053 17.2492 29.6038 17.1056 29.4617C16.9524 29.31 17.0046 28.9344 16.995 28.6563C16.9881 28.441 16.9063 28.3329 16.693 28.3617C16.3753 28.4044 16.2421 28.2684 16.2804 27.9581C16.3126 27.6967 16.1907 27.6295 15.947 27.633C15.1061 27.6444 14.2653 27.6348 13.4252 27.6417C13.2964 27.6426 13.145 27.6522 13.0475 27.7202C12.9735 27.7716 12.97 27.9233 12.9352 28.0296C13.0449 28.0418 13.1719 28.0932 13.2607 28.0558C13.3608 28.0131 13.4148 27.8736 13.5106 27.8056C13.5654 27.7673 13.6664 27.7725 13.7386 27.7908C13.7691 27.7986 13.7987 27.8875 13.7969 27.9398C13.7917 28.1699 13.447 28.4846 13.1772 28.516C12.8664 28.5526 12.6105 28.3774 12.5287 28.0723C12.4477 27.7681 12.5696 27.4674 12.8655 27.3654C13.0762 27.2922 13.3103 27.2643 13.5341 27.2608C14.3149 27.2469 15.0957 27.2408 15.8756 27.2565C16.236 27.2635 16.2769 27.0656 16.2847 26.7815C16.2943 26.4633 16.0941 26.4999 15.8817 26.479C14.731 26.3657 13.5297 26.7501 12.4181 26.1321C12.419 27.7969 12.419 29.4634 12.419 31.1701ZM32.62 16.2104C32.5451 16.363 32.5164 16.4545 32.4615 16.5268C31.9488 17.2041 31.4509 17.8944 30.9086 18.5472C30.5883 18.9334 30.187 19.2506 29.8397 19.6158C29.7718 19.6873 29.7848 19.8364 29.7613 19.9497C29.8771 19.961 30.0068 20.0089 30.1061 19.9741C30.2358 19.9279 30.3507 19.8242 30.456 19.7283C32.9507 17.4612 35.2375 15.0102 37.0872 12.1766C37.1621 12.0615 37.1342 11.8793 37.1551 11.7277C37.0045 11.7364 36.8156 11.6884 36.7103 11.7617C35.1113 12.8686 33.433 13.8387 31.7121 14.74C31.1532 15.0329 30.6658 15.4164 30.3689 16.0012C30.0669 16.5957 30.0712 16.6105 30.7267 16.709C30.7467 16.7125 30.7641 16.7343 30.8381 16.7874C30.4299 17.3461 30.0216 17.9057 29.6125 18.4653C29.643 18.488 29.6734 18.5106 29.7039 18.5333C30.8555 18.0312 31.4553 16.8354 32.62 16.2104ZM17.9952 13.321C18.0457 13.3184 18.0962 13.3149 18.1467 13.3123C18.1737 13.1841 18.2337 13.0517 18.2215 12.9279C18.1911 12.6298 18.1371 12.3334 18.0744 12.0406C17.3737 8.79292 15.4282 6.30706 13.1615 4.02079C13.0945 3.95281 12.9561 3.95542 12.8507 3.92578C12.8272 4.04781 12.7524 4.18727 12.7872 4.28838C13.4165 6.11094 14.0529 7.93089 14.7031 9.7456C14.9442 10.4185 15.4413 10.8255 16.1429 10.9667C16.2699 10.992 16.4083 10.9589 16.5415 10.9537C16.518 10.8221 16.5267 10.6713 16.4641 10.5614C16.2926 10.2599 16.0898 9.97571 15.9026 9.68197C15.6632 9.30631 15.4273 8.92802 15.1897 8.55061C15.3446 8.56281 15.4413 8.62383 15.5327 8.69181C16.3788 9.32374 16.8088 10.2302 17.1709 11.1829C17.4433 11.8968 17.7201 12.608 17.9952 13.321ZM9.36103 12.9436C8.92927 13.1728 8.83352 13.5293 8.73777 13.8579C8.47663 14.7548 8.54888 15.6604 8.72994 16.5634C8.81002 16.9635 8.91535 17.0175 9.26092 16.7883C9.86677 16.3856 10.4717 15.9803 11.0671 15.5611C12.2963 14.6973 13.0118 13.4291 13.6951 12.1434C13.7447 12.0493 13.7125 11.8331 13.6376 11.7704C13.5419 11.6911 13.3295 11.6449 13.2277 11.6989C12.8812 11.8828 12.5426 12.0946 12.2336 12.3361C11.7661 12.7021 11.3257 13.1031 10.873 13.4892C10.84 13.4718 10.8069 13.4552 10.7747 13.4378C10.833 13.2303 10.9052 13.0255 10.9453 12.8155C10.9653 12.7091 10.9279 12.5914 10.9166 12.4799C10.8034 12.5095 10.645 12.5025 10.5866 12.5758C10.3551 12.8625 10.1575 13.1763 9.94337 13.477C9.77798 13.7089 9.60563 13.9372 9.43676 14.1665C9.38453 14.1455 9.3323 14.1246 9.28007 14.1037C9.30619 13.7437 9.33056 13.3829 9.36103 12.9436ZM18.6603 22.7781C18.6724 22.7162 18.6846 22.6543 18.6977 22.5924C18.413 22.473 18.1371 22.3196 17.8411 22.2403C16.5163 21.8864 15.2219 22.0913 14.025 22.6735C12.002 23.6576 10.0226 24.7305 8.02834 25.7747C7.95261 25.814 7.9204 25.9368 7.86817 26.0214C7.95435 26.0693 8.04488 26.1635 8.12757 26.1574C8.62809 26.1216 9.13558 26.1068 9.62391 26.004C11.2856 25.6544 12.7567 24.8438 14.2182 24.021C15.4326 23.3377 16.673 22.7641 18.1249 22.9019C18.2981 22.9184 18.4818 22.8217 18.6603 22.7781ZM5.80168 16.0126C6.05237 16.1267 6.21689 16.1895 6.37009 16.2732C6.82187 16.5198 7.26581 16.7813 7.72106 17.0228C8.03443 17.1884 8.21897 17.116 8.27207 16.8362C8.39742 16.1782 8.01528 15.4443 7.39725 15.2307C5.72769 14.6528 4.11471 13.9503 2.56876 13.0918C2.4347 13.0177 2.27192 12.995 2.12307 12.9479C2.09696 12.9819 2.07085 13.0159 2.0456 13.0508C2.12569 13.1859 2.1901 13.3341 2.28759 13.4544C3.4253 14.8524 4.58911 16.2296 5.98796 17.3775C6.60773 17.8866 7.26842 18.3459 7.92301 18.8087C8.01441 18.8732 8.20591 18.8741 8.30689 18.8209C8.37217 18.7869 8.41396 18.569 8.36956 18.4871C8.22681 18.2239 8.07447 17.9467 7.85773 17.7497C7.62357 17.5362 7.30933 17.4124 7.03687 17.2398C6.56856 16.9443 6.11766 16.6297 5.80168 16.0126ZM31.7791 22.2281C31.6833 22.2281 31.5806 22.2063 31.4927 22.2333C31.3708 22.2699 31.2594 22.3432 31.1445 22.4007C31.2115 22.5253 31.2455 22.7023 31.35 22.7668C33.0012 23.7866 34.6621 24.7907 36.3177 25.8026C37.1203 26.2925 37.9951 26.4947 38.9248 26.4581C39.0545 26.4528 39.1798 26.3326 39.3069 26.2663C39.2138 26.1713 39.1346 26.0519 39.024 25.9848C38.6454 25.7556 38.2319 25.5777 37.875 25.3206C37.0193 24.7035 36.2115 24.0193 35.3428 23.424C34.2756 22.6918 33.0883 22.2647 31.7791 22.2281ZM36.3708 43.724C35.7215 43.0694 35.1234 42.4672 34.4845 41.823C35.0129 41.3027 35.5456 40.7684 36.0931 40.2498C36.1924 40.1556 36.3543 40.1286 36.5615 40.0371C36.524 39.9177 36.4596 39.7076 36.3821 39.4583C35.5369 40.3108 34.7605 41.0926 34.0084 41.8509C34.7796 42.6284 35.5595 43.4164 36.3499 44.213C36.4431 44.1302 36.5475 44.0369 36.652 43.9446C36.6746 43.955 36.6964 43.9655 36.719 43.9759C36.6737 44.1363 36.6293 44.2976 36.5841 44.4579C36.598 44.4553 36.6119 44.4518 36.6259 44.4492C36.6259 44.8188 36.6259 45.1884 36.6259 45.5588C36.6172 45.5553 36.6085 45.5527 36.5998 45.5492C36.6354 45.7122 36.6711 45.8752 36.706 46.0382C36.6807 46.0443 36.6555 46.0504 36.6311 46.0565C36.524 45.9658 36.417 45.8761 36.3665 45.8334C35.9034 46.2692 35.4621 46.6849 34.9981 47.1207C35.7075 47.2759 35.8633 46.5524 36.3874 46.3128C36.504 46.5028 36.625 46.7006 36.746 46.8976C36.7129 46.9203 36.6798 46.9429 36.6468 46.9656C36.5388 46.8758 36.4318 46.786 36.3125 46.6867C36.235 46.7581 36.1628 46.8183 36.0984 46.8854C36.0374 46.949 35.9843 47.0196 35.8877 47.1364C36.1306 47.1364 36.3073 47.1382 36.484 47.1364C37.1621 47.1286 37.2631 47.0179 37.196 46.3563C37.0489 44.899 36.8957 43.4416 36.7591 41.9825C36.7277 41.6504 36.5815 41.4291 36.3578 41.3062C36.1236 41.5058 35.9156 41.6836 35.7502 41.8239C35.9426 42.0514 36.1184 42.2588 36.3003 42.4741C36.4387 42.3599 36.551 42.2676 36.6624 42.1752C36.6981 42.2031 36.7338 42.2318 36.7695 42.2597C36.632 42.4654 36.4944 42.6711 36.39 42.8271C36.0139 42.475 35.684 42.1673 35.4194 41.9207C35.7319 41.5912 36.0418 41.2661 36.3534 40.9375C36.4274 40.9854 36.5171 41.0447 36.6076 41.1048C36.6372 41.0839 36.6668 41.063 36.6964 41.0421C36.5919 40.8241 36.4875 40.6071 36.4126 40.4502C35.8773 40.9601 35.3863 41.4282 34.9528 41.8405C35.4133 42.3207 35.8747 42.8027 36.3377 43.2856C36.4431 43.2037 36.551 43.12 36.6589 43.0354C36.6929 43.0616 36.726 43.0869 36.7599 43.113C36.632 43.3144 36.504 43.5148 36.3708 43.724ZM7.97176 7.22226C8.15804 8.77462 8.82047 10.0428 9.82412 11.1602C10.0861 11.4522 10.3673 11.5072 10.7224 11.4392C11.1098 11.3651 11.5059 11.3337 11.8871 11.2396C12.0725 11.1942 12.3171 11.0879 12.3868 10.9397C12.5069 10.6835 12.2188 10.5911 12.0482 10.4725C11.3588 9.99489 10.6397 9.55646 9.98602 9.03523C9.29661 8.48524 8.66988 7.8568 7.97176 7.22226ZM14.5412 37.5521C14.1408 37.1372 13.7865 36.7694 13.4348 36.4059C13.1972 36.5157 13.2425 36.6282 13.3878 36.7633C13.7125 37.064 14.0302 37.3708 14.3096 37.6366C14.0294 37.9382 13.7874 38.1988 13.5166 38.4908C13.165 38.1134 12.8151 37.7386 12.4782 37.3786C12.231 37.4963 12.2266 37.6044 12.3885 37.7499C12.7254 38.0533 13.0544 38.3662 13.4096 38.6956C13.0248 39.0765 12.7071 39.4017 12.3772 39.7154C12.2066 39.8767 12.2588 39.9691 12.5147 40.1164C12.8603 39.7407 13.2059 39.3651 13.5245 39.019C13.803 39.2788 14.0537 39.5124 14.3601 39.7983C14.0172 40.119 13.6934 40.4215 13.3695 40.7239C13.2041 40.8782 13.2485 40.9767 13.5088 41.076C13.8492 40.7117 14.1974 40.3387 14.5473 39.9639C14.8833 40.2959 15.2027 40.6028 15.5092 40.92C15.6702 41.0874 15.759 41.0577 15.8443 40.7501C15.5057 40.4476 15.1314 40.1138 14.7997 39.8183C15.067 39.5202 15.3011 39.2587 15.5649 38.965C15.8895 39.3023 16.1907 39.6117 16.4858 39.9264C16.6355 40.0868 16.7435 40.0746 16.8592 39.7991C16.491 39.4644 16.1011 39.1105 15.6449 38.6965C16.0784 38.3034 16.4667 37.9504 16.8558 37.5974C16.8375 37.5538 16.8183 37.5102 16.8001 37.4667C16.6991 37.4884 16.5659 37.4771 16.5032 37.5381C16.1855 37.8467 15.8869 38.1744 15.6032 38.4716C15.3072 38.1901 15.0522 37.9469 14.7397 37.6506C15.0635 37.3507 15.3768 37.0718 15.6737 36.7763C15.739 36.711 15.7459 36.5872 15.7799 36.4896C15.6745 36.5201 15.5387 36.5192 15.4691 36.5863C15.1618 36.8844 14.8728 37.2034 14.5412 37.5521ZM30.852 37.6C31.2742 37.9975 31.6477 38.3505 32.0698 38.7479C31.7138 39.0853 31.3848 39.3999 31.0514 39.7093C30.893 39.8566 30.8991 39.9647 31.188 40.126C31.531 39.7468 31.8748 39.3677 32.176 39.0338C32.4598 39.2875 32.7149 39.5158 32.9995 39.7695C32.6713 40.092 32.3693 40.3997 32.0559 40.6943C31.8836 40.8564 31.8862 40.961 32.1752 41.0708C32.5146 40.7091 32.8637 40.3369 33.2075 39.97C33.5453 40.302 33.8656 40.608 34.1746 40.9235C34.3357 41.0874 34.4253 41.0577 34.5071 40.7544C34.1703 40.445 33.8003 40.1059 33.4791 39.8113C33.7272 39.5185 33.9561 39.2474 34.2138 38.9432C34.5472 39.2918 34.8501 39.6004 35.1435 39.9177C35.2897 40.0763 35.3959 40.0824 35.5186 39.7913C35.1452 39.4644 34.75 39.1184 34.2808 38.707C34.7361 38.293 35.1243 37.94 35.5256 37.5747C35.4359 37.4963 35.3767 37.4431 35.2383 37.322C34.8893 37.7151 34.5507 38.0977 34.2408 38.4472C33.9535 38.1831 33.7002 37.9513 33.3642 37.6419C33.7786 37.2897 34.1694 36.9576 34.5594 36.6255C34.5315 36.5724 34.5045 36.5192 34.4767 36.4652C34.3731 36.4887 34.239 36.4782 34.172 36.541C33.9178 36.7772 33.675 37.0291 33.4469 37.2915C33.2659 37.5007 33.1327 37.4824 32.9595 37.2801C32.741 37.0247 32.5042 36.7842 32.2587 36.5558C32.196 36.4974 32.0681 36.5105 31.9697 36.4904C31.9958 36.5785 31.9967 36.6909 32.0524 36.7502C32.3588 37.0718 32.68 37.3795 32.9882 37.6846C32.7201 37.9443 32.4642 38.1927 32.1725 38.4751C31.8453 38.1099 31.5023 37.7281 31.1149 37.2967C31.0035 37.4266 30.9513 37.4867 30.852 37.6ZM29.2217 37.4423C29.1511 37.4048 29.0798 37.3682 29.0093 37.3307C28.6654 37.709 28.3216 38.0873 28.0265 38.4124C27.7558 38.1701 27.4999 37.9408 27.1578 37.6349C27.5591 37.2836 27.9421 36.948 28.3259 36.6116C28.299 36.5619 28.272 36.5122 28.2441 36.4626C28.1449 36.4904 28.0187 36.4887 27.9525 36.5506C27.6896 36.7964 27.4389 37.0561 27.1978 37.3237C27.0507 37.4867 26.9384 37.4937 26.7887 37.3281C26.5467 37.0614 26.2978 36.7999 26.0331 36.5567C25.9626 36.4922 25.8242 36.5035 25.7163 36.4791C25.6945 36.5305 25.6728 36.5811 25.651 36.6325C26.034 36.9751 26.4161 37.3176 26.7748 37.6392C26.4866 37.9539 26.2464 38.2163 25.9626 38.5257C25.6345 38.1788 25.3272 37.8589 25.026 37.5338C24.8745 37.3708 24.7779 37.4004 24.6639 37.6654C25.0364 38.0132 25.4168 38.3679 25.8355 38.7593C25.4351 39.1349 25.0599 39.4871 24.69 39.834C24.7849 40.0746 24.8902 40.0876 25.0391 39.9255C25.3385 39.6013 25.6432 39.2823 25.9069 39.0025C26.2246 39.2936 26.484 39.5307 26.7983 39.8183C26.41 40.1704 26.0383 40.5086 25.6667 40.8459C25.6858 40.8904 25.7041 40.9357 25.7232 40.9802C25.8207 40.9593 25.9504 40.9715 26.0114 40.9131C26.3361 40.5984 26.6425 40.2663 27.0011 39.8933C27.3928 40.3099 27.7436 40.6829 28.0935 41.056C28.2842 40.8599 28.2903 40.8529 28.1257 40.6943C27.8158 40.3962 27.4973 40.1068 27.1778 39.8096C27.4894 39.5045 27.7419 39.2578 28.0239 38.9815C28.3259 39.2962 28.6297 39.603 28.9231 39.9203C29.0667 40.0754 29.1738 40.0894 29.3026 39.8009C28.93 39.474 28.5349 39.128 28.1066 38.7523C28.4887 38.3836 28.8143 38.0829 29.1207 37.763C29.1921 37.6898 29.1903 37.5503 29.2217 37.4423ZM14.5455 43.765C14.22 43.4442 13.9188 43.1366 13.6028 42.8454C13.5367 42.7844 13.4148 42.7836 13.3182 42.7548C13.3452 42.8515 13.3408 42.9788 13.4026 43.0407C13.7134 43.3518 14.0407 43.6456 14.314 43.9001C14.0241 44.2278 13.7891 44.4945 13.5123 44.8075C13.138 44.4074 12.7889 44.0335 12.4381 43.6587C12.2475 43.8722 12.2397 43.8801 12.3998 44.0335C12.7254 44.3455 13.0588 44.6488 13.4148 44.9792C13.0274 45.3566 12.7141 45.6695 12.3911 45.9737C12.2214 46.1332 12.231 46.2413 12.5165 46.3598C12.8455 46.0025 13.185 45.6329 13.5106 45.2781C13.7935 45.5405 14.0511 45.7802 14.3836 46.0887C13.9963 46.4304 13.6403 46.7451 13.2842 47.0589C13.3103 47.0902 13.3365 47.1207 13.3626 47.1521C13.9519 47.1338 14.0816 46.4348 14.5473 46.2648C15.006 46.481 15.1523 47.1094 15.7172 47.1486C15.7555 47.1068 15.7929 47.0658 15.8312 47.024C15.45 46.7198 15.0696 46.4156 14.7614 46.1689C15.073 45.7976 15.3002 45.5274 15.5518 45.2267C15.8887 45.5754 16.1933 45.8813 16.4858 46.1977C16.6373 46.3624 16.7383 46.3441 16.8575 46.0739C16.4849 45.7427 16.0924 45.3932 15.6214 44.9748C16.068 44.5695 16.4571 44.2174 16.8453 43.8652C16.8288 43.8234 16.8122 43.7824 16.7957 43.7406C16.6956 43.7633 16.5633 43.7537 16.5015 43.8156C16.1864 44.1267 15.8887 44.4553 15.6467 44.7133C15.3229 44.4457 15.0495 44.2209 14.7118 43.9411C15.1288 43.5724 15.5039 43.2403 15.8791 42.9073C15.638 42.6781 15.6371 42.6772 15.4534 42.8594C15.1505 43.1618 14.8476 43.4634 14.5455 43.765ZM27.1673 43.9472C27.5129 43.6247 27.8402 43.3283 28.1527 43.0172C28.2076 42.9622 28.1989 42.8446 28.2189 42.7557C28.1301 42.774 28.0126 42.7626 27.956 42.8158C27.6957 43.0642 27.4433 43.3231 27.2065 43.5933C27.0446 43.7789 26.9271 43.7624 26.773 43.5872C26.5667 43.3527 26.3508 43.1252 26.1184 42.9187C26.0236 42.835 25.8738 42.8132 25.7494 42.7635C25.7998 42.8768 25.8233 43.0154 25.9052 43.0973C26.1933 43.3858 26.5006 43.6543 26.8 43.9297C26.5023 44.2435 26.2568 44.5015 25.953 44.8223C25.5883 44.4117 25.248 44.0274 24.9067 43.643C24.6917 43.8679 24.6848 43.8757 24.851 44.0343C25.1766 44.3446 25.5108 44.6462 25.8869 44.994C25.436 45.4176 25.0617 45.7697 24.6909 46.1184C24.7936 46.3433 24.9015 46.3563 25.0469 46.1951C25.3411 45.8674 25.6414 45.544 25.8695 45.2947C26.2107 45.5841 26.4797 45.8124 26.827 46.1071C26.4475 46.4496 26.0958 46.7686 25.7441 47.0868C26.3752 47.1094 26.5293 46.4609 26.9898 46.2613C27.4511 46.4696 27.5991 47.1242 28.1823 47.1539C28.2145 47.1181 28.2476 47.0815 28.2798 47.0458C27.9081 46.732 27.5364 46.4173 27.1813 46.1175C27.4999 45.7785 27.7419 45.5204 28.0282 45.2163C28.3921 45.6094 28.7342 45.9781 29.0754 46.3459C29.2869 46.1402 29.2948 46.1323 29.1364 45.9789C28.8125 45.6643 28.48 45.3575 28.1127 45.0123C28.4931 44.6453 28.8091 44.3342 29.1337 44.0317C29.2817 43.894 29.3191 43.7842 29.0371 43.6526C28.7107 44.0125 28.3669 44.3926 28.0309 44.763C27.734 44.4823 27.4851 44.247 27.1673 43.9472ZM33.0561 46.0887C32.6609 46.4417 32.3057 46.759 31.9514 47.0763C32.6043 47.1303 32.741 46.4653 33.3355 46.1986C33.46 46.3589 33.6045 46.5821 33.7855 46.7712C34.1633 47.1652 34.1711 47.1582 34.5568 47.0423C34.1476 46.6745 33.7873 46.3511 33.4678 46.0643C33.7263 45.775 33.9561 45.5178 34.2303 45.211C34.5925 45.6067 34.9319 45.9781 35.2688 46.3459C35.5038 46.1445 35.5134 46.1349 35.3559 45.9807C35.0312 45.6634 34.696 45.3583 34.3226 45.0079C34.7013 44.648 35.0216 44.342 35.3437 44.0378C35.496 43.894 35.5395 43.7728 35.2166 43.6578C34.8954 44.0117 34.5585 44.383 34.3035 44.6645C33.9944 44.4257 33.715 44.2087 33.3712 43.9419C33.7864 43.5619 34.1555 43.2237 34.5167 42.8934C34.3583 42.5892 34.239 42.74 34.118 42.8603C33.8151 43.1618 33.5113 43.4626 33.1588 43.8138C32.7941 43.4198 32.4476 43.0442 32.055 42.6197C32.0002 42.7103 31.9314 42.7923 31.9445 42.8071C32.2796 43.2106 32.6226 43.6072 32.9316 43.9663C32.687 44.2278 32.445 44.4858 32.1543 44.7961C31.7904 44.4196 31.4361 44.0518 31.0836 43.6857C30.8486 43.8016 30.9452 43.9167 31.0731 44.0396C31.3926 44.3472 31.7086 44.6584 32.0794 45.021C31.7225 45.3557 31.3865 45.6616 31.0618 45.9789C30.8851 46.1515 30.8938 46.1602 31.2098 46.3555C31.5328 46.0007 31.8696 45.6311 32.2126 45.2546C32.4807 45.5231 32.7262 45.7645 33.0561 46.0887ZM8.50013 43.935C8.85093 43.6107 9.17301 43.324 9.47941 43.0215C9.53512 42.9666 9.52816 42.8498 9.55079 42.7618C9.46287 42.7792 9.34623 42.7679 9.29052 42.8202C9.02938 43.0677 8.77607 43.3248 8.53843 43.595C8.37391 43.7824 8.25205 43.758 8.1032 43.5854C7.93346 43.3885 7.74979 43.2037 7.50345 42.9387C7.43381 43.6116 7.37375 44.1686 7.31978 44.7255C7.2571 45.3583 7.1953 45.992 7.1422 46.6257C7.12305 46.854 7.16919 47.0615 7.40769 47.1129C7.73238 46.82 8.03878 46.5437 8.33823 46.2744C8.79087 46.4679 8.9345 47.1164 9.49769 47.1547C9.53947 47.1068 9.58126 47.0589 9.62304 47.0118C9.25744 46.6937 8.89184 46.3755 8.53147 46.0626C8.82482 45.7584 9.0642 45.51 9.32969 45.2346C9.65612 45.5693 9.96949 45.8813 10.2715 46.2038C10.4265 46.3703 10.524 46.3467 10.6746 46.0713C10.2837 45.7235 9.89375 45.3758 9.4768 45.0044C9.83979 44.6497 10.154 44.3368 10.4752 44.0317C10.6232 43.8914 10.6415 43.7798 10.3891 43.6508C10.0513 44.0152 9.70399 44.3908 9.34536 44.7778C9.06507 44.4972 8.82047 44.254 8.50013 43.935ZM15.5875 19.2315C15.5196 18.9996 15.4508 18.7198 15.356 18.4496C15.0243 17.5022 14.7249 16.5408 14.3297 15.6203C14.1477 15.195 13.7821 14.8455 13.481 14.4768C13.3678 14.3382 13.178 14.2615 13.0588 14.4628C12.822 14.8629 12.6427 15.2874 12.9021 15.7511C13.4453 16.7229 13.9806 17.7 14.5482 18.6571C14.7214 18.9499 14.9686 19.2097 15.2236 19.4389C15.4108 19.6063 15.5875 19.5052 15.5875 19.2315ZM11.6199 18.1018C12.2005 18.2709 12.7454 18.4409 13.2964 18.5795C13.4105 18.6083 13.5532 18.5246 13.6829 18.4923C13.6185 18.3816 13.5819 18.2186 13.4862 18.169C12.5722 17.6931 11.6364 17.2721 10.6119 17.0873C10.107 16.9966 9.65264 17.2625 9.48725 17.741C9.41674 17.9449 9.44894 18.0844 9.65612 18.1803C10.5884 18.6126 11.5146 19.0598 12.4529 19.4773C12.6366 19.5592 12.8673 19.5365 13.0762 19.5618C13.0936 19.5069 13.1101 19.452 13.1275 19.3971C12.8325 19.2349 12.5409 19.0632 12.2397 18.9124C11.9132 18.7495 11.7 18.508 11.6199 18.1018ZM17.6026 44.1965C18.4009 43.4111 19.1904 42.6328 19.9599 41.8753C19.186 41.0961 18.4104 40.316 17.6923 39.5925C16.9063 40.3622 16.115 41.1379 15.3351 41.9015C16.0941 42.6694 16.861 43.446 17.6026 44.1965ZM11.4702 33.2942C10.6824 34.0673 9.89114 34.844 9.1025 35.6171C9.87809 36.392 10.6572 37.1694 11.4171 37.9286C12.197 37.1494 12.9822 36.3649 13.7612 35.5874C12.9909 34.8161 12.2127 34.0368 11.4702 33.2942ZM13.7578 41.8954C12.9674 41.1083 12.1796 40.3247 11.4519 39.6004C10.6885 40.3482 9.89375 41.1257 9.126 41.8779C9.89462 42.6528 10.6702 43.4347 11.4345 44.2043C12.2101 43.4347 12.9918 42.6572 13.7578 41.8954ZM32.425 41.8901C31.6433 41.1005 30.8625 40.3125 30.1531 39.596C29.3583 40.3639 28.561 41.1344 27.8054 41.8649C28.5766 42.6441 29.3496 43.4251 30.113 44.1965C30.8799 43.432 31.659 42.6546 32.425 41.8901ZM32.4659 35.5604C31.7965 34.8971 31.1193 34.2199 30.4316 33.5531C30.3803 33.5034 30.2401 33.4825 30.1792 33.5165C29.8406 33.7074 29.4906 33.8895 29.1903 34.131C28.8648 34.3925 28.5871 34.715 28.2911 35.013C28.1014 35.2039 27.9168 35.4 27.7662 35.5561C28.5723 36.3736 29.3453 37.1572 30.1121 37.9347C30.8816 37.159 31.6581 36.3763 32.4659 35.5604ZM9.47854 41.0926C9.52555 41.0255 9.5978 40.9444 9.58735 40.9322C9.25222 40.5304 8.90838 40.1347 8.58196 39.7555C8.82917 39.4923 9.06507 39.2413 9.35493 38.9327C9.71705 39.3354 10.0591 39.7146 10.4482 40.1469C10.5205 40.0327 10.5901 39.9508 10.5788 39.936C10.2376 39.5219 9.88853 39.1158 9.51597 38.6791C9.83892 38.3662 10.1532 38.0533 10.4787 37.7508C10.6563 37.5861 10.6241 37.4876 10.3525 37.3786C10.0182 37.7369 9.67614 38.1047 9.28965 38.5187C9.08596 38.2991 8.90838 38.0881 8.70992 37.899C8.55845 37.7543 8.57064 37.6549 8.71862 37.5172C8.99108 37.2636 9.2557 37.0003 9.50378 36.724C9.55688 36.6648 9.52555 36.5305 9.53947 36.3501C9.16082 36.7136 8.88575 36.9977 8.58631 37.254C8.46706 37.356 8.2947 37.3943 8.07186 37.4954C8.02486 37.9129 7.95 38.456 7.91083 39.0007C7.89255 39.2509 7.94564 39.5063 7.96654 39.759C7.99178 39.7529 8.01702 39.7468 8.04314 39.7407C7.94303 39.9438 7.84293 40.1469 7.74282 40.35C7.77416 40.3683 7.8055 40.3875 7.83684 40.4058C7.997 40.2559 8.1563 40.1051 8.333 39.9403C8.71862 40.3265 9.07203 40.6829 9.47854 41.0926ZM12.8621 25.9796C13.0518 26.0223 13.1728 26.0702 13.2947 26.0728C14.1329 26.0911 14.9721 26.0876 15.8103 26.1173C16.1646 26.1295 16.3309 26.0258 16.2856 25.6492C16.256 25.4008 16.3352 25.2056 16.6373 25.25C17.0481 25.3102 17.1752 25.1289 17.1317 24.7427C17.0951 24.4228 17.2571 24.2755 17.5791 24.3078C17.6505 24.3148 17.7228 24.3034 17.795 24.3069C18.1092 24.3235 18.158 24.1683 18.0457 23.8284C17.4651 24.0672 16.9054 24.2991 16.3457 24.5283C16.2142 24.5823 16.0828 24.6617 15.947 24.6739C15.1235 24.748 14.4272 25.1341 13.7839 25.5028C13.7673 25.6841 13.756 25.8139 13.7447 25.9447C13.6594 25.9351 13.5297 25.9578 13.4949 25.9098C13.2781 25.6196 13.1154 25.8157 12.8621 25.9796ZM7.9056 21.5866C7.90473 21.6336 7.90386 21.6807 7.90299 21.7269C8.18763 21.7958 8.47054 21.8725 8.75779 21.9309C9.0729 21.9945 9.42022 21.9779 9.70399 22.1061C10.8104 22.6055 11.8575 22.3222 12.9047 21.9344C12.9656 21.9117 13.0379 21.8193 13.0379 21.7583C13.0379 21.6929 12.9743 21.604 12.9134 21.5674C12.8359 21.5212 12.7341 21.4986 12.6418 21.4977C11.2543 21.475 9.8659 21.4515 8.47837 21.4454C8.28774 21.4445 8.09624 21.5378 7.9056 21.5866ZM16.7322 34.7097C16.7165 34.6644 16.7008 34.6191 16.6843 34.5737C16.552 34.5737 16.3718 34.518 16.2952 34.5833C15.9339 34.8928 15.6014 35.2344 15.2767 35.5482C16.1019 36.3745 16.8793 37.1529 17.6488 37.9243C18.2938 37.2732 18.9475 36.6133 19.6038 35.9509C19.4663 35.7775 19.3279 35.7417 19.1521 35.9465C18.964 36.1645 18.7499 36.3588 18.5453 36.5619C18.2511 36.8539 17.9543 37.1442 17.701 37.3934C17.0638 36.7659 16.4606 36.1706 15.7981 35.5186C16.1037 35.2527 16.4179 34.9808 16.7322 34.7097ZM35.4264 31.232C35.2488 31.1108 35.1583 31.0419 35.0608 30.9835C34.5272 30.6628 34.0023 30.3255 33.4547 30.0309C33.0648 29.8217 32.9203 29.5366 32.9403 29.0991C32.9743 28.3443 32.9655 27.5868 32.9699 26.8303C32.9734 26.1704 32.9708 25.5106 32.9708 24.8508C32.8968 24.9685 32.8855 25.0914 32.8846 25.2143C32.8811 26.3195 32.8794 27.4256 32.8776 28.5308C32.8768 29.324 32.8785 30.1171 32.8741 30.9103C32.8733 31.0846 32.8933 31.2302 33.1118 31.2302C33.8491 31.2328 34.5872 31.232 35.4264 31.232ZM9.00152 31.157C9.00588 31.1831 9.00936 31.2093 9.01371 31.2354C9.70399 31.2354 10.3951 31.2241 11.0854 31.2407C11.384 31.2476 11.4745 31.1448 11.471 30.8467C11.4562 29.4896 11.4641 28.1325 11.4623 26.7753C11.4623 26.7047 11.4458 26.6333 11.4371 26.5627C11.384 26.683 11.3727 26.8006 11.3736 26.9183C11.3788 27.6984 11.3788 28.4785 11.3962 29.2586C11.4031 29.582 11.2848 29.7938 10.9993 29.9576C10.3255 30.342 9.66656 30.7543 9.00152 31.157ZM36.3186 37.9295C36.2986 37.4222 36.3003 37.4196 35.9878 37.1102C35.4873 36.6142 34.9833 36.1217 34.4245 35.5735C34.8849 35.1342 35.3001 34.7219 35.7354 34.3297C35.9443 34.1414 36 33.9479 35.8886 33.7117C35.2549 34.3454 34.6177 34.9825 34.004 35.5962C34.7639 36.3623 35.5291 37.1337 36.3186 37.9295ZM9.48463 32.4862C9.66656 32.2831 9.79191 32.1445 9.91726 32.0051C9.90072 31.9754 9.88418 31.9458 9.86851 31.9162C9.6744 31.9937 9.48028 32.0713 9.37408 32.114C9.08161 32.0426 8.85006 31.9868 8.58631 31.9223C8.53147 32.5176 8.47663 33.0188 8.44529 33.5208C8.43833 33.6385 8.47663 33.7902 8.55062 33.8773C8.78478 34.1501 9.03808 34.4081 9.30271 34.6513C9.36277 34.7062 9.49943 34.6775 9.60128 34.6871C9.63174 34.6243 9.66134 34.5624 9.69181 34.4997C9.31141 34.1571 8.93189 33.8146 8.6072 33.5217C8.85354 33.2437 9.08161 32.9857 9.35232 32.6806C9.67004 33.017 9.97645 33.3369 10.2759 33.662C10.4343 33.8346 10.5292 33.7797 10.6389 33.5278C10.2698 33.194 9.88766 32.8488 9.48463 32.4862ZM26.1454 41.9067C25.5439 41.2966 24.9363 40.6812 24.2817 40.0179C24.3906 40.9531 25.3315 41.212 25.698 41.9363C25.2871 42.3364 24.8745 42.7548 24.4436 43.1523C24.2339 43.3457 24.1808 43.5567 24.2452 43.7955C24.8911 43.1523 25.5413 42.5064 26.1454 41.9067ZM11.2996 20.1196C11.4336 20.0342 11.5485 19.9828 11.5433 19.961C11.5241 19.8826 11.4815 19.7841 11.4171 19.7475C10.7294 19.357 10.0374 18.9743 9.34362 18.5952C9.14776 18.488 8.96061 18.5124 8.85006 18.7189C8.7369 18.9316 8.78042 19.1225 9.02154 19.2184C9.78495 19.5243 10.551 19.8242 11.2996 20.1196ZM21.4492 31.1526C21.4901 30.9373 21.4658 30.8022 21.2238 30.7377C20.6475 30.5861 20.0817 30.3987 19.5072 30.2383C19.4089 30.2104 19.2469 30.2017 19.193 30.2592C18.9336 30.5303 18.702 30.8275 18.46 31.116C18.4801 31.1509 18.5001 31.1858 18.5201 31.2206C18.7194 31.1561 18.971 31.1474 19.1077 31.0175C19.5281 30.6201 19.7518 30.6366 20.0086 31.1518C20.4908 31.1526 20.9687 31.1526 21.4492 31.1526ZM17.7158 36.5271C17.345 36.1923 17.0107 35.8916 16.6704 35.584C16.8932 35.3495 17.1021 35.1298 17.3215 34.8989C16.9733 34.755 16.6138 35.0043 16.2412 35.5883C16.713 36.066 17.1813 36.5401 17.6348 36.9986C18.0918 36.5497 18.548 36.1017 19.0224 35.6354C18.877 35.5587 18.7403 35.4863 18.6315 35.4288C18.454 35.9736 17.9752 36.2028 17.7158 36.5271ZM18.6811 43.6613C18.6298 43.6778 18.5776 43.6953 18.5262 43.7118C18.5506 43.8129 18.5436 43.9454 18.6054 44.0099C18.9179 44.3368 19.2496 44.6471 19.6247 45.0123C19.2008 45.3871 18.8082 45.734 18.4426 46.0574C18.5723 46.3485 18.6768 46.3467 18.8256 46.1916C19.1294 45.8752 19.4454 45.571 19.7527 45.2659C19.9094 45.3871 20.026 45.4777 20.1931 45.6067C20.167 45.1988 20.1453 44.8571 20.1218 44.4754C19.9616 44.5974 19.8615 44.6741 19.7248 44.7778C19.3662 44.3961 19.0241 44.0291 18.6811 43.6613ZM17.7045 45.8909C17.2727 46.2953 16.8297 46.712 16.3788 47.1347C17.0508 47.2628 17.2031 46.5368 17.6496 46.345C18.1101 46.5673 18.2677 47.2663 18.9466 47.1234C18.4888 46.6692 18.0596 46.243 17.7045 45.8909ZM11.5006 45.8421C11.041 46.2857 10.6006 46.7111 10.1619 47.1338C10.833 47.2776 10.9766 46.5385 11.4728 46.3276C11.6573 46.5141 11.8575 46.7024 12.0403 46.9055C12.2397 47.1268 12.459 47.2262 12.7541 47.1077C12.311 46.6614 11.8828 46.2282 11.5006 45.8421ZM31.3691 47.1408C30.94 46.6832 30.5169 46.2334 30.1339 45.8255C29.6821 46.2587 29.2452 46.6788 28.7786 47.1268C29.4871 47.2628 29.6456 46.5507 30.0965 46.3406C30.557 46.5586 30.7102 47.2794 31.3691 47.1408ZM22.5147 47.1033C23.2807 47.2707 23.42 46.5202 23.8778 46.3476C24.3357 46.5594 24.4889 47.2698 25.1801 47.1225C24.764 46.7067 24.3775 46.3215 24.0006 45.9449C23.9362 45.999 23.87 46.1044 23.7925 46.1131C23.1771 46.1864 22.9882 46.7599 22.5147 47.1033ZM19.9581 38.4934C19.3436 38.286 19.1068 37.6994 18.6385 37.4118C18.4191 37.512 18.4714 37.6253 18.6132 37.7578C18.9432 38.0646 19.2687 38.3784 19.6282 38.7201C19.1991 39.1227 18.8256 39.474 18.46 39.8174C18.5619 40.0615 18.6603 40.0911 18.8161 39.9272C19.0554 39.6754 19.2966 39.4235 19.5551 39.1916C19.6578 39.0992 19.8093 39.0609 19.9599 38.9885C19.9581 38.8377 19.9581 38.6468 19.9581 38.4934ZM35.9878 34.579C35.6344 34.9285 35.274 35.2859 35.0024 35.5552C35.3915 35.9622 35.8015 36.3919 36.2115 36.8199C36.2298 36.2054 35.5804 36.045 35.308 35.5081C35.4516 35.3896 35.6283 35.2475 35.8015 35.102C35.9878 34.9442 36.1175 34.7699 35.9878 34.579ZM25.6884 35.4515C25.631 35.5718 25.5988 35.7147 25.5126 35.808C25.2279 36.1156 24.9329 36.4146 24.6247 36.6988C24.4193 36.8888 24.3479 37.0927 24.4306 37.369C24.4767 37.349 24.515 37.3438 24.5377 37.3211C25.1096 36.7589 25.6788 36.1958 26.2473 35.6345C26.0793 35.3565 25.9043 35.1996 25.6884 35.4515ZM12.9613 16.6663C12.762 16.3473 12.6288 16.057 12.4225 15.8356C12.3206 15.7267 12.0682 15.6813 11.9141 15.7223C11.7922 15.7537 11.619 15.9838 11.6425 16.0849C11.6817 16.254 11.8323 16.4405 11.9872 16.5303C12.1988 16.6523 12.4573 16.6994 12.7001 16.7595C12.7593 16.7735 12.8377 16.7125 12.9613 16.6663ZM19.4994 47.0353C19.5281 47.078 19.5577 47.1216 19.5864 47.1643C20.1409 47.0929 20.3089 46.4688 20.7659 46.2587C21.2168 46.4662 21.3831 47.0807 21.9698 47.1016C21.7147 46.7634 21.4492 46.4269 21.1089 46.2073C20.9374 46.0966 20.5735 46.1097 20.3951 46.2221C20.0582 46.4339 19.7936 46.7581 19.4994 47.0353ZM28.5305 43.045C28.2023 43.3763 27.9038 43.6778 27.5895 43.9951C27.7131 44.1311 27.8306 44.2592 27.8985 44.3342C28.2528 44.0152 28.5662 43.7327 28.9039 43.4277C28.7725 43.2934 28.6576 43.1758 28.5305 43.045ZM13.9049 44.0439C13.5758 43.711 13.2799 43.4102 12.9709 43.0965C12.8699 43.2054 12.7541 43.3309 12.6688 43.4233C12.9831 43.758 13.2668 44.0605 13.5654 44.3786C13.6942 44.2522 13.8109 44.1372 13.9049 44.0439ZM34.7605 40.6655C34.8701 40.5548 34.9929 40.4319 35.1278 40.2951C34.8014 39.9726 34.5071 39.6806 34.1929 39.3694C34.0693 39.501 33.9509 39.6274 33.8264 39.7608C34.1224 40.0475 34.4123 40.3291 34.7605 40.6655ZM13.951 37.7351C13.6237 37.3943 13.3356 37.0945 13.0562 36.8042C12.9082 36.935 12.7776 37.05 12.6383 37.1729C12.9543 37.485 13.2572 37.7839 13.5419 38.0655C13.6742 37.9591 13.803 37.8545 13.951 37.7351ZM31.3291 37.1354C31.645 37.4719 31.9297 37.7752 32.2378 38.1029C32.3719 37.9766 32.4981 37.8571 32.5904 37.77C32.2535 37.4344 31.9523 37.1363 31.6529 36.8373C31.551 36.9306 31.43 37.0422 31.3291 37.1354ZM35.0773 46.5795C34.7779 46.2831 34.4784 45.9876 34.1981 45.7096C34.0876 45.8037 33.9553 45.9153 33.8325 46.0199C34.1355 46.3337 34.4227 46.6309 34.7483 46.9682C34.8666 46.827 34.9737 46.7015 35.0773 46.5795ZM28.5897 36.8827C28.2737 37.1938 27.9682 37.4946 27.6583 37.7996C27.7419 37.8781 27.8611 37.9896 27.9447 38.0681C28.2746 37.7595 28.5784 37.4754 28.9205 37.1555C28.7786 37.0378 28.6515 36.9332 28.5897 36.8827ZM8.96583 45.9859C9.27659 46.3058 9.57168 46.6091 9.83021 46.8741C9.96339 46.7826 10.1009 46.6893 10.2681 46.5742C9.92074 46.2456 9.61869 45.9606 9.28356 45.6433C9.17562 45.7593 9.05723 45.8874 8.96583 45.9859ZM31.6598 46.9168C31.9906 46.6013 32.2918 46.3145 32.5434 46.0739C32.4372 45.9101 32.3423 45.7628 32.2674 45.6477C31.9201 45.9781 31.6189 46.2639 31.3169 46.5507C31.4396 46.6823 31.5519 46.8026 31.6598 46.9168ZM9.26789 38.0794C9.5978 37.756 9.90072 37.4588 10.1793 37.1869C10.0687 37.0561 9.95643 36.9236 9.85371 36.8025C9.53251 37.118 9.23568 37.4109 8.92318 37.7168C9.05114 37.851 9.17214 37.9792 9.26789 38.0794ZM31.3395 43.385C31.6625 43.7406 31.9419 44.0483 32.1978 44.3289C32.3353 44.2182 32.465 44.1145 32.5904 44.0134C32.2683 43.7014 31.9636 43.4059 31.6433 43.0956C31.5415 43.1932 31.4213 43.3065 31.3395 43.385ZM25.2218 41.8649C24.9398 41.5746 24.623 41.2486 24.3131 40.9296C24.1477 41.4203 24.7065 41.5406 24.8362 41.8823C24.6604 42.224 24.1338 42.3565 24.2722 42.916C24.6108 42.5421 24.9268 42.1908 25.2218 41.8649ZM34.246 33.1356C34.0806 33.2672 33.9474 33.3727 33.8047 33.486C34.125 33.805 34.4123 34.0917 34.7134 34.3925C34.8492 34.2495 34.9746 34.1188 35.0808 34.0063C34.784 33.6969 34.5037 33.404 34.246 33.1356ZM15.2358 39.6692C15.5335 40.0057 15.8121 40.3212 16.1019 40.649C16.2229 40.52 16.3335 40.4023 16.4292 40.3012C16.1167 39.9839 15.826 39.6893 15.4952 39.3546C15.3916 39.481 15.2863 39.6082 15.2358 39.6692ZM8.94233 44.0012C9.05462 44.132 9.16952 44.2644 9.22959 44.3342C9.58735 44.0134 9.90246 43.7301 10.2315 43.4347C10.0983 43.2969 9.98341 43.1775 9.87635 43.0677C9.5534 43.3902 9.25222 43.6918 8.94233 44.0012ZM18.2511 35.5979C17.6322 34.9154 17.6836 34.8012 17.1326 35.5412C17.3145 35.7618 17.4869 35.971 17.6697 36.1915C17.8699 35.9866 18.0535 35.7992 18.2511 35.5979ZM9.83891 40.6699C9.97471 40.5444 10.1044 40.4249 10.2393 40.3003C9.91291 39.9865 9.61172 39.6989 9.28704 39.3868C9.19042 39.4949 9.06855 39.6309 8.94059 39.773C9.23655 40.0685 9.52381 40.3552 9.83891 40.6699ZM31.6172 40.6202C31.9645 40.3055 32.2787 40.0214 32.5486 39.7765C32.4389 39.6309 32.3397 39.4993 32.2631 39.3973C31.934 39.7085 31.625 39.9987 31.3064 40.3003C31.4231 40.4206 31.538 40.5383 31.6172 40.6202ZM26.0523 39.3607C25.7102 39.7024 25.4107 40.0013 25.1157 40.2951C25.2149 40.4127 25.3211 40.5383 25.416 40.6516C25.7528 40.3195 26.0549 40.0223 26.3491 39.732C26.2481 39.6056 26.1454 39.4766 26.0523 39.3607ZM35.126 43.4338C34.9685 43.2987 34.8353 43.1828 34.7404 43.1017C34.4001 43.4198 34.1059 43.6953 33.796 43.9846C33.9283 44.1337 34.0449 44.2653 34.1703 44.4065C34.5054 44.0657 34.797 43.7685 35.126 43.4338ZM12.9857 46.9168C13.3016 46.6074 13.6072 46.3075 13.9249 45.9964C13.8161 45.8778 13.7055 45.7567 13.6063 45.6486C13.2694 45.9789 12.9665 46.2761 12.6314 46.6047C12.7489 46.7093 12.8655 46.8122 12.9857 46.9168ZM16.4092 46.5952C16.1063 46.2727 15.8225 45.9711 15.5718 45.7044C15.4308 45.8159 15.2959 45.9231 15.2036 45.9964C15.5039 46.3128 15.7877 46.6117 16.1002 46.9403C16.2116 46.8157 16.3143 46.7015 16.4092 46.5952ZM16.1028 43.0703C15.7511 43.4007 15.4482 43.6857 15.127 43.9873C15.2767 44.1293 15.4021 44.2487 15.5074 44.349C15.833 44.0335 16.1315 43.7441 16.4545 43.4312C16.3309 43.3048 16.216 43.1871 16.1028 43.0703ZM18.8726 43.3937C19.2026 43.7345 19.4976 44.0387 19.8537 44.4056C19.9329 44.2148 20.1078 43.9698 20.053 43.8966C19.8241 43.5889 19.5255 43.3327 19.267 43.0721C19.0911 43.2141 18.964 43.3187 18.8726 43.3937ZM25.449 43.0668C25.3063 43.1976 25.1853 43.3074 25.1174 43.3702C25.4342 43.7249 25.7163 44.0404 26.0105 44.3699C26.1515 44.2392 26.2725 44.1267 26.3996 44.0082C26.0706 43.6831 25.7755 43.3902 25.449 43.0668ZM34.1537 38.0794C34.495 37.7604 34.7979 37.4771 35.0956 37.1991C34.9694 37.0492 34.8571 36.9158 34.777 36.8199C34.4436 37.1407 34.1381 37.4353 33.8517 37.7107C33.9544 37.8371 34.0597 37.9652 34.1537 38.0794ZM10.208 34.0551C9.88853 33.7143 9.60563 33.4119 9.31576 33.1025C9.19216 33.2332 9.0729 33.3596 8.97019 33.4685C9.26354 33.7736 9.55514 34.0778 9.86416 34.4003C9.9956 34.2678 10.1122 34.1501 10.208 34.0551ZM28.0108 45.673C27.8568 45.802 27.7253 45.9118 27.64 45.9833C27.9482 46.3154 28.2293 46.6178 28.4948 46.9046C28.6411 46.7956 28.7803 46.691 28.9283 46.5812C28.5827 46.2387 28.2963 45.9554 28.0108 45.673ZM15.4813 38.089C15.8286 37.7621 16.1307 37.4789 16.4667 37.1625C16.3335 37.0291 16.2125 36.908 16.108 36.8034C15.7738 37.1354 15.4752 37.4327 15.161 37.7456C15.2637 37.8563 15.376 37.9766 15.4813 38.089ZM13.5671 39.3633C13.2555 39.6893 12.963 39.9952 12.6766 40.2942C12.7759 40.4119 12.8873 40.5435 12.9813 40.6551C13.3156 40.3247 13.6176 40.0275 13.9066 39.7416C13.7952 39.617 13.6855 39.4949 13.5671 39.3633ZM26.0088 38.1125C26.1463 37.9774 26.2699 37.8554 26.3822 37.7456C26.061 37.4048 25.7746 37.1032 25.4604 36.7694C25.3167 36.9088 25.1914 37.03 25.0617 37.1564C25.3925 37.4902 25.6858 37.7865 26.0088 38.1125ZM27.9804 39.372C27.8541 39.5063 27.7358 39.6318 27.6113 39.7643C27.9168 40.0624 28.2137 40.3526 28.5174 40.649C28.6376 40.5278 28.7603 40.4049 28.8822 40.2829C28.5775 39.9761 28.2868 39.6815 27.9804 39.372ZM31.6355 34.3715C31.9732 34.0351 32.2727 33.737 32.5599 33.452C32.4633 33.3369 32.358 33.2114 32.2579 33.0929C31.9288 33.4197 31.6285 33.7187 31.3108 34.0351C31.4161 34.1449 31.5293 34.2617 31.6355 34.3715ZM25.3838 46.8889C25.7319 46.5646 26.0401 46.2779 26.3622 45.9789C26.2429 45.8656 26.1254 45.7549 26.0488 45.6817C25.7198 46.0007 25.4168 46.2936 25.1148 46.5856C25.2131 46.6963 25.315 46.8113 25.3838 46.8889ZM19.1582 46.8932C19.5072 46.5638 19.8128 46.2753 20.134 45.9719C20.0191 45.8639 19.9015 45.7532 19.858 45.7122C19.5133 46.0164 19.1982 46.2953 18.8674 46.5873C18.9823 46.7085 19.0885 46.82 19.1582 46.8932ZM13.998 33.4154C13.7299 33.3596 13.4714 33.221 13.353 33.2986C13.0762 33.479 12.8664 33.7631 12.6871 33.9462C12.8081 34.1275 12.9012 34.2661 12.9674 34.3646C13.3025 34.056 13.615 33.7684 13.998 33.4154ZM19.2774 40.6943C19.4933 40.4616 19.7144 40.2698 19.8702 40.0345C19.9538 39.9081 19.9381 39.7067 19.932 39.5402C19.9311 39.5141 19.6987 39.4409 19.6465 39.4819C19.3584 39.7093 19.092 39.9656 18.7699 40.2559C18.9693 40.4284 19.0929 40.5348 19.2774 40.6943ZM18.8814 37.1163C19.2069 37.4684 19.4872 37.7717 19.7684 38.0759C20.1548 37.6192 19.8162 37.2383 19.2156 36.8138C19.0955 36.9219 18.9745 37.0317 18.8814 37.1163ZM21.5711 46.1349C21.8192 46.3912 22.0673 46.6475 22.3284 46.9177C22.4451 46.7948 22.5565 46.678 22.654 46.576C22.3937 46.0617 21.982 46.0757 21.5711 46.1349ZM14.5351 33.7352C14.2043 33.5696 13.8596 33.8268 13.259 34.66C13.3652 34.6853 13.4958 34.7054 13.5602 34.6487C13.8822 34.3663 14.1878 34.0647 14.5351 33.7352ZM33.1997 34.8936C33.3573 34.7481 33.4861 34.6287 33.6071 34.5162C33.46 34.3419 33.3529 34.2164 33.2258 34.0656C33.0761 34.2329 32.9621 34.3611 32.8271 34.5119C32.9447 34.633 33.0604 34.7507 33.1997 34.8936ZM32.8002 42.9936C32.9429 43.1278 33.0683 43.2446 33.1832 43.3518C33.3372 43.2229 33.4687 43.1122 33.5705 43.0276C33.4373 42.8576 33.3364 42.7278 33.2101 42.5665C33.0604 42.7217 32.9481 42.8393 32.8002 42.9936ZM14.5377 37.0683C14.677 36.9507 14.8093 36.8391 14.8659 36.7912C14.7423 36.6107 14.6448 36.4678 14.5455 36.3231C14.3915 36.4669 14.2731 36.5776 14.1268 36.7136C14.2766 36.8435 14.4019 36.9507 14.5377 37.0683ZM33.5888 40.7431C33.4661 40.6123 33.3529 40.4921 33.2215 40.3517C33.0752 40.5025 32.956 40.6263 32.835 40.7509C32.9586 40.8921 33.0674 41.0168 33.2136 41.1841C33.3442 41.0299 33.4513 40.9043 33.5888 40.7431ZM14.1286 40.7675C14.2766 40.9043 14.3967 41.015 14.5586 41.1641C14.6866 41.0229 14.8023 40.8948 14.8876 40.7997C14.7693 40.6437 14.6657 40.5069 14.5534 40.3596C14.4037 40.5043 14.2931 40.6097 14.1286 40.7675ZM33.2128 36.2917C33.0665 36.446 32.9481 36.5706 32.8245 36.6996C32.956 36.8408 33.0735 36.9672 33.2023 37.1067C33.3468 36.955 33.4661 36.8295 33.5757 36.7153C33.453 36.5706 33.3451 36.446 33.2128 36.2917ZM7.94651 42.9997C8.0588 43.1235 8.17719 43.2525 8.29818 43.3858C8.4627 43.2342 8.58457 43.1217 8.70295 43.0128C8.56019 42.8655 8.44007 42.7417 8.30167 42.5996C8.19112 42.7234 8.0884 42.8393 7.94651 42.9997ZM8.34519 40.3578C8.19982 40.5078 8.07883 40.6324 7.93955 40.7762C8.07622 40.9026 8.20243 41.0185 8.3391 41.1449C8.47924 40.9941 8.59066 40.8738 8.70817 40.7474C8.57586 40.6054 8.46357 40.4842 8.34519 40.3578ZM35.355 38.1256C35.5021 38.2851 35.6126 38.4054 35.7467 38.5518C35.8929 38.3984 36.0017 38.2842 36.1201 38.1605C35.9704 38.0184 35.8512 37.906 35.6988 37.7621C35.5804 37.8877 35.4838 37.9896 35.355 38.1256ZM27.3719 42.9814C27.2448 42.8454 27.1317 42.7252 27.0481 42.6354C26.8862 42.7722 26.7556 42.8829 26.6694 42.9561C26.7695 43.1043 26.8627 43.2438 26.9698 43.4024C27.1221 43.2429 27.2292 43.1305 27.3719 42.9814ZM14.5934 42.6424C14.4245 42.7696 14.294 42.8672 14.1373 42.9858C14.2914 43.1252 14.4132 43.2359 14.5621 43.371C14.6822 43.2499 14.8049 43.1244 14.9138 43.0145C14.7849 42.8655 14.677 42.74 14.5934 42.6424ZM10.5344 44.349C10.6606 44.5268 10.7607 44.668 10.833 44.7709C10.9993 44.6532 11.1211 44.5678 11.2726 44.4606C11.1037 44.2923 10.9879 44.1773 10.8539 44.043C10.7207 44.1703 10.6128 44.2749 10.5344 44.349ZM15.8251 34.6879C15.8304 34.6522 15.8347 34.6165 15.8399 34.5816C15.5335 34.287 15.2863 33.907 14.7423 33.8407C15.0287 34.1432 15.2654 34.4108 15.5248 34.6539C15.584 34.7097 15.7233 34.6792 15.8251 34.6879ZM27.4024 36.7232C27.2509 36.5671 27.1369 36.4504 26.9741 36.283C26.8496 36.4495 26.7504 36.5828 26.6207 36.7545C26.7191 36.8504 26.8444 36.9725 26.9602 37.0858C27.1195 36.955 27.2483 36.8496 27.4024 36.7232ZM31.0052 38.1762C30.8947 38.0315 30.7972 37.9051 30.6875 37.7613C30.5291 37.9338 30.4142 38.0602 30.2897 38.1962C30.4351 38.3287 30.5439 38.4281 30.6623 38.5353C30.8059 38.3853 30.9199 38.2659 31.0052 38.1762ZM14.9033 34.5223C14.7771 34.3506 14.6796 34.2173 14.5621 34.0577C14.401 34.2199 14.287 34.3358 14.1425 34.4814C14.294 34.6121 14.4228 34.7228 14.5656 34.8457C14.6839 34.7324 14.8023 34.6191 14.9033 34.5223ZM26.955 41.1318C27.1203 40.9976 27.2483 40.8939 27.3667 40.7971C27.2222 40.6306 27.116 40.5077 27.0359 40.4154C26.8844 40.5435 26.7539 40.6533 26.6129 40.7727C26.733 40.8991 26.8392 41.0107 26.955 41.1318ZM18.2128 39.6876C18.3861 39.5464 18.494 39.4583 18.6298 39.3476C18.4696 39.1777 18.353 39.053 18.2729 38.9685C18.1014 39.0896 17.9778 39.1768 17.8655 39.2561C17.9978 39.4208 18.1005 39.5481 18.2128 39.6876ZM10.6624 32.4845C10.5388 32.3346 10.4404 32.216 10.3403 32.0957C10.1975 32.2308 10.0792 32.3415 9.99995 32.4174C10.094 32.5603 10.1854 32.698 10.2994 32.8715C10.4543 32.7067 10.5597 32.5952 10.6624 32.4845ZM17.0951 44.8249C17.2475 44.6785 17.3467 44.5826 17.4842 44.4501C17.3371 44.2967 17.2179 44.1738 17.1204 44.0718C16.9472 44.1965 16.8244 44.2845 16.6712 44.3943C16.8349 44.5608 16.948 44.6758 17.0951 44.8249ZM17.8542 45.5265C18.0022 45.7044 18.1058 45.829 18.2389 45.9885C18.393 45.8403 18.4983 45.7375 18.6063 45.6338C18.4583 45.4577 18.3486 45.3269 18.2276 45.1823C18.0736 45.3252 17.9708 45.4193 17.8542 45.5265ZM26.3526 36.4843C26.5267 36.3562 26.659 36.2586 26.8105 36.1462C26.6712 35.9962 26.5772 35.8943 26.4893 35.8001C26.3195 35.9448 26.1872 36.0573 26.0384 36.1854C26.1663 36.3074 26.2673 36.4033 26.3526 36.4843ZM15.1383 36.5384C15.2724 36.3937 15.3655 36.2935 15.4717 36.1784C15.3203 36.0363 15.1932 35.9169 15.0565 35.7888C14.9416 35.9152 14.8493 36.0163 14.7527 36.1235C14.8868 36.2673 14.9982 36.3867 15.1383 36.5384ZM18.736 45.3749C18.9127 45.2302 19.0293 45.1334 19.1808 45.0088C19.0293 44.858 18.9214 44.7508 18.7778 44.6079C18.6394 44.7552 18.5288 44.8728 18.3948 45.0149C18.5192 45.1465 18.6237 45.2563 18.736 45.3749ZM14.7327 42.3948C14.892 42.5465 15.0165 42.665 15.1523 42.7949C15.2724 42.6659 15.3603 42.5709 15.4326 42.4942C15.3203 42.3355 15.2184 42.1926 15.0948 42.0165C14.9425 42.1752 14.8537 42.2676 14.7327 42.3948ZM18.7873 38.3409C18.6341 38.5013 18.5245 38.6163 18.3982 38.7488C18.541 38.8778 18.6568 38.9833 18.7595 39.0765C18.9127 38.9528 19.0302 38.8578 19.1573 38.7549C19.0198 38.6006 18.9197 38.4882 18.7873 38.3409ZM13.9406 34.6504C13.8143 34.7751 13.7177 34.8718 13.6107 34.9782C13.7534 35.1394 13.8683 35.2693 13.9815 35.3966C14.1312 35.2728 14.2383 35.1848 14.3497 35.0932C14.2061 34.9372 14.0955 34.8178 13.9406 34.6504ZM17.0725 37.7674C16.9219 37.9068 16.8183 38.0018 16.6712 38.1369C16.8279 38.2877 16.9533 38.408 17.0534 38.5039C17.2048 38.3819 17.3223 38.2869 17.4712 38.1666C17.3319 38.0271 17.2161 37.9112 17.0725 37.7674ZM35.3428 44.3917C35.5134 44.5521 35.6379 44.6689 35.778 44.8005C35.9051 44.6663 36.007 44.5582 36.0958 44.464C35.9687 44.3037 35.8668 44.1747 35.7754 44.0587C35.6065 44.1886 35.4873 44.2801 35.3428 44.3917ZM12.0412 45.9876C12.1683 45.8552 12.2727 45.7471 12.399 45.6155C12.244 45.4647 12.1204 45.3461 11.9977 45.2267C11.8601 45.3339 11.7426 45.4272 11.5886 45.5475C11.7644 45.7192 11.8819 45.8334 12.0412 45.9876ZM26.3743 42.8071C26.5389 42.6572 26.6599 42.5465 26.8174 42.4035C26.6851 42.2693 26.5885 42.1717 26.4675 42.0488C26.3012 42.2022 26.175 42.3199 26.041 42.4436C26.1707 42.5848 26.2586 42.6807 26.3743 42.8071ZM10.282 39.0713C10.4343 38.951 10.5597 38.8508 10.6302 38.795C10.517 38.6216 10.4282 38.4838 10.356 38.374C10.1819 38.5144 10.0626 38.6111 9.93554 38.7139C10.0652 38.8482 10.1714 38.9571 10.282 39.0713ZM27.1726 35.0401C27.3066 35.1961 27.3911 35.2946 27.4973 35.4175C27.6479 35.2554 27.7662 35.1281 27.8881 34.9965C27.7906 34.8753 27.7036 34.7673 27.627 34.6714C27.4476 34.8161 27.3197 34.9207 27.1726 35.0401ZM30.3298 44.4327C30.4377 44.5774 30.5291 44.6985 30.6135 44.8118C30.7902 44.6619 30.9156 44.5556 31.0871 44.41C30.9408 44.2653 30.8338 44.1598 30.6884 44.0152C30.5439 44.1825 30.4368 44.308 30.3298 44.4327ZM30.6893 45.2049C30.5204 45.3452 30.4116 45.435 30.3202 45.5109C30.4542 45.6852 30.5596 45.8229 30.6832 45.9841C30.8303 45.8281 30.933 45.7183 31.0488 45.5954C30.9156 45.4516 30.8059 45.3322 30.6893 45.2049ZM11.6312 44.424C11.7644 44.5878 11.8593 44.7046 11.9655 44.8362C12.1309 44.6628 12.2492 44.5381 12.3816 44.3987C12.2519 44.2749 12.143 44.1721 12.0055 44.0413C11.8732 44.1773 11.76 44.2932 11.6312 44.424ZM33.776 36.5018C33.9083 36.3859 34.0179 36.2882 34.0728 36.2403C33.9483 36.0668 33.8465 35.9248 33.7359 35.7714C33.6053 35.9117 33.5122 36.0119 33.4112 36.12C33.5514 36.2673 33.6645 36.385 33.776 36.5018ZM11.6182 39.2875C11.7635 39.4278 11.888 39.5481 11.9985 39.6544C12.1491 39.5481 12.2788 39.4557 12.3641 39.3956C12.217 39.196 12.1204 39.0643 11.9959 38.8952C11.8514 39.0452 11.7479 39.1532 11.6182 39.2875ZM10.9401 38.9711C10.7607 39.0957 10.618 39.1951 10.4509 39.3119C10.6006 39.4731 10.7033 39.5847 10.8008 39.6893C10.9714 39.5359 11.1011 39.42 11.2282 39.3058C11.1046 39.1628 11.0053 39.0478 10.9401 38.9711ZM35.2444 38.3915C35.0782 38.5283 34.9607 38.625 34.8475 38.7183C34.9598 38.8604 35.0608 38.9885 35.1461 39.0966C35.3228 38.9528 35.442 38.856 35.5874 38.7366C35.4473 38.5954 35.3393 38.4873 35.2444 38.3915ZM35.6666 39.6649C35.8529 39.5211 35.9835 39.4191 36.1254 39.3084C35.993 39.1567 35.8938 39.0426 35.8102 38.9475C35.6309 39.094 35.4977 39.2029 35.348 39.3258C35.4838 39.4696 35.5804 39.5734 35.6666 39.6649ZM18.2642 44.0491C18.0979 44.2034 17.9795 44.3124 17.8516 44.4309C17.9735 44.5713 18.0709 44.6837 18.151 44.7752C18.3199 44.6427 18.4548 44.5364 18.5654 44.4501C18.4513 44.2984 18.3669 44.1869 18.2642 44.0491ZM27.6174 40.9549C27.4563 41.1083 27.3319 41.2277 27.1917 41.3611C27.3031 41.4665 27.4024 41.5615 27.4859 41.6417C27.6435 41.5066 27.7741 41.3942 27.8968 41.2896C27.788 41.158 27.7044 41.0586 27.6174 40.9549ZM29.1416 44.3873C29.3 44.5416 29.4227 44.6619 29.5307 44.7674C29.6691 44.6645 29.7892 44.5756 29.9381 44.4649C29.7727 44.2897 29.6604 44.1712 29.508 44.0099C29.3627 44.159 29.2582 44.2671 29.1416 44.3873ZM29.018 38.4228C28.8796 38.5405 28.7577 38.6442 28.6854 38.7052C28.7803 38.8395 28.8735 38.972 28.957 39.0905C29.1146 38.9598 29.233 38.8613 29.3435 38.7689C29.2086 38.6242 29.1041 38.5144 29.018 38.4228ZM32.2953 41.2295C32.4363 41.3846 32.5529 41.5136 32.6922 41.6679C32.8063 41.5615 32.9081 41.4665 32.9978 41.3829C32.8445 41.2164 32.727 41.09 32.5851 40.9357C32.4763 41.0464 32.3849 41.1388 32.2953 41.2295ZM14.3349 41.3872C14.1939 41.2068 14.0929 41.0769 13.971 40.9192C13.8318 41.0612 13.7299 41.165 13.6611 41.2347C13.7848 41.4064 13.8857 41.5467 13.9902 41.6923C14.1434 41.5572 14.24 41.4718 14.3349 41.3872ZM10.9035 45.2093C10.7364 45.354 10.6119 45.4612 10.45 45.6006C10.5901 45.7453 10.6946 45.8525 10.7512 45.9118C10.9366 45.7741 11.0759 45.6712 11.2447 45.5449C11.1168 45.4202 11.0167 45.3217 10.9035 45.2093ZM10.8521 38.5021C11.0027 38.3845 11.1211 38.293 11.2003 38.2311C11.0628 38.0585 10.9549 37.9243 10.8321 37.77C10.7016 37.9086 10.6006 38.0158 10.4709 38.1535C10.618 38.2877 10.7381 38.3976 10.8521 38.5021ZM35.6892 45.9414C35.8416 45.7941 35.9652 45.6765 36.0818 45.5632C35.9791 45.4359 35.8851 45.32 35.8033 45.2197C35.6283 45.3679 35.4986 45.4777 35.3402 45.612C35.4786 45.7427 35.5796 45.8377 35.6892 45.9414ZM8.78826 35.36C8.97193 35.2161 9.10772 35.1098 9.17736 35.054C9.08422 34.9023 9.01023 34.7821 8.92405 34.6426C8.76476 34.81 8.64637 34.9355 8.5158 35.0741C8.63419 35.1978 8.72297 35.292 8.78826 35.36ZM34.1433 42.4654C34.0058 42.3207 33.8874 42.1952 33.7629 42.0645C33.6193 42.1848 33.5139 42.2737 33.3781 42.3878C33.547 42.5317 33.6776 42.6424 33.8238 42.7679C33.9126 42.6842 34.0049 42.5962 34.1433 42.4654ZM12.5539 39.0765C12.6888 38.9624 12.8142 38.8569 12.9561 38.7375C12.7968 38.5893 12.6793 38.4795 12.58 38.3871C12.4251 38.5117 12.3058 38.6085 12.1805 38.7096C12.3171 38.8438 12.4268 38.951 12.5539 39.0765ZM11.6312 33.0257C11.7618 33.1495 11.8871 33.2689 12.0081 33.3831C12.1491 33.275 12.2754 33.1774 12.3859 33.0929C12.2318 32.9098 12.1274 32.7852 11.9846 32.6152C11.8532 32.7686 11.7539 32.8828 11.6312 33.0257ZM29.1703 38.143C29.2843 38.2703 29.3992 38.3984 29.5342 38.5483C29.6795 38.4115 29.7875 38.3095 29.898 38.2049C29.7439 38.0472 29.6256 37.9251 29.4758 37.7717C29.3766 37.8938 29.2878 38.0018 29.1703 38.143ZM16.7017 39.338C16.8323 39.4627 16.9393 39.5647 17.0516 39.6719C17.204 39.5341 17.3258 39.4235 17.4573 39.304C17.331 39.1646 17.2301 39.0513 17.1213 38.931C16.9698 39.0783 16.8532 39.1916 16.7017 39.338ZM10.4979 33.0162C10.6276 33.1783 10.7224 33.296 10.7895 33.3796C10.9601 33.2437 11.0959 33.1347 11.2082 33.0449C11.0906 32.8924 10.9975 32.773 10.8887 32.6318C10.7311 32.7869 10.6145 32.902 10.4979 33.0162ZM18.1867 38.5048C18.3321 38.3705 18.4583 38.2537 18.5993 38.1239C18.4644 37.9975 18.3556 37.8946 18.2781 37.8214C18.111 37.9443 17.9787 38.0428 17.8194 38.1605C17.9743 38.306 18.0831 38.408 18.1867 38.5048ZM12.1143 37.8537C11.9193 37.9687 11.767 38.0594 11.5981 38.1587C11.7653 38.3182 11.8723 38.4211 11.9838 38.5274C12.1309 38.3906 12.251 38.2773 12.3894 38.1483C12.2667 38.0167 12.1648 37.9077 12.1143 37.8537ZM35.1974 32.8654C35.3454 32.7181 35.4577 32.6056 35.5587 32.5054C35.4185 32.3337 35.3167 32.209 35.2 32.0661C35.0494 32.2247 34.9415 32.3398 34.8458 32.4409C34.9659 32.5856 35.0625 32.7024 35.1974 32.8654ZM30.6623 39.6509C30.8111 39.5446 30.9417 39.4513 31.0871 39.3485C30.9043 39.1742 30.7868 39.0626 30.6327 38.9153C30.5108 39.0408 30.4072 39.148 30.2749 39.2831C30.4299 39.4304 30.5543 39.549 30.6623 39.6509ZM29.582 38.9528C29.414 39.0853 29.2835 39.1872 29.1407 39.2997C29.2713 39.4505 29.3705 39.5638 29.4671 39.6754C29.6247 39.5254 29.75 39.406 29.8745 39.2875C29.7683 39.1655 29.6752 39.0591 29.582 38.9528ZM8.50187 42.3835C8.65856 42.5491 8.77259 42.6685 8.89794 42.801C9.04156 42.6816 9.15473 42.5883 9.21131 42.5404C9.06159 42.3443 8.958 42.2074 8.87443 42.0976C8.74038 42.1996 8.6368 42.2789 8.50187 42.3835ZM25.3402 38.7828C25.2218 38.6146 25.1278 38.4804 25.0626 38.388C24.8815 38.5196 24.757 38.6102 24.6056 38.7209C24.7605 38.8656 24.8763 38.9737 25.0086 39.0975C25.1496 38.9632 25.261 38.8578 25.3402 38.7828ZM16.1672 38.7453C16.2995 38.8717 16.4083 38.9754 16.5189 39.0809C16.6608 38.9554 16.78 38.8517 16.8697 38.7724C16.7461 38.6102 16.6538 38.4908 16.5337 38.333C16.3944 38.4891 16.2934 38.6033 16.1672 38.7453ZM29.4602 45.9441C29.6351 45.7985 29.7622 45.693 29.9146 45.5658C29.7857 45.4298 29.6813 45.3191 29.5916 45.225C29.4158 45.3662 29.2817 45.4743 29.1276 45.598C29.2669 45.7427 29.3635 45.8438 29.4602 45.9441ZM24.9833 45.3679C25.1339 45.2363 25.2541 45.1317 25.3899 45.0132C25.234 44.8641 25.1252 44.7604 25.0269 44.6663C24.8832 44.7892 24.7631 44.892 24.6047 45.028C24.7448 45.1535 24.8493 45.2468 24.9833 45.3679ZM17.4651 45.571C17.3154 45.4307 17.2022 45.3243 17.0786 45.2075C16.9367 45.3583 16.8262 45.4743 16.6982 45.6094C16.834 45.7349 16.9411 45.8342 17.0551 45.9406C17.2013 45.809 17.3215 45.7017 17.4651 45.571ZM32.6705 35.4218C32.8089 35.2876 32.9081 35.1909 32.9847 35.1168C32.8402 34.9503 32.727 34.8195 32.6322 34.7097C32.4955 34.8082 32.3823 34.8893 32.2979 34.9494C32.4424 35.1325 32.546 35.2632 32.6705 35.4218ZM16.5337 44.6166C16.3788 44.7883 16.276 44.9025 16.1681 45.0219C16.3143 45.1579 16.4162 45.2529 16.518 45.347C16.6617 45.2372 16.787 45.1404 16.8828 45.0681C16.7461 44.8929 16.6538 44.7735 16.5337 44.6166ZM12.5443 45.401C12.6984 45.2398 12.809 45.1239 12.8995 45.0289C12.7759 44.8755 12.681 44.7578 12.5635 44.6131C12.4129 44.7604 12.298 44.872 12.1587 45.0088C12.298 45.1509 12.4051 45.2598 12.5443 45.401ZM35.2479 44.6654C35.0677 44.7987 34.9467 44.8885 34.8031 44.994C34.9641 45.1439 35.0799 45.2511 35.1722 45.3365C35.3306 45.2206 35.4533 45.1317 35.5474 45.062C35.4159 44.8885 35.3245 44.7665 35.2479 44.6654ZM8.80741 41.6452C8.98498 41.5084 9.12339 41.402 9.27224 41.287C9.12339 41.1449 9.02416 41.0499 8.90751 40.9383C8.76737 41.0874 8.64985 41.2111 8.53234 41.3358C8.64463 41.4622 8.72994 41.5581 8.80741 41.6452ZM31.6094 38.7436C31.4675 38.5972 31.356 38.4821 31.2516 38.3749C31.1071 38.5187 30.9939 38.6311 30.8625 38.7619C30.9826 38.8735 31.101 38.9824 31.2142 39.087C31.3613 38.9589 31.4779 38.8578 31.6094 38.7436ZM24.7884 45.6416C24.663 45.4786 24.5577 45.3418 24.4558 45.2084C24.058 45.5588 24.0624 45.6085 24.4863 45.9266C24.5916 45.8264 24.7004 45.7244 24.7884 45.6416ZM18.0161 38.7253C17.869 38.5858 17.7602 38.4838 17.654 38.3827C17.5156 38.5013 17.4094 38.5937 17.2814 38.7035C17.4146 38.8447 17.5173 38.9528 17.6418 39.0835C17.7706 38.9598 17.8794 38.856 18.0161 38.7253ZM28.6506 44.9565C28.756 45.1108 28.8482 45.2459 28.9657 45.4185C29.1224 45.2502 29.226 45.1395 29.3427 45.0149C29.2208 44.8781 29.1128 44.7578 28.9953 44.6262C28.8491 44.7656 28.7464 44.8641 28.6506 44.9565ZM8.34171 36.3109C8.06751 36.6282 8.0736 36.8356 8.3478 37.0954C8.47054 36.9725 8.59501 36.8487 8.70556 36.7389C8.57412 36.5837 8.46706 36.4582 8.34171 36.3109ZM32.2605 42.4532C32.398 42.5831 32.5033 42.6833 32.5738 42.7504C32.7436 42.6249 32.8768 42.5264 33.0413 42.4044C32.902 42.2693 32.8019 42.1725 32.6853 42.0601C32.5347 42.1987 32.4067 42.3181 32.2605 42.4532ZM36.3264 44.6488C36.1793 44.7735 36.0644 44.8702 35.9295 44.9844C36.0844 45.1317 36.1924 45.2337 36.3073 45.3435C36.4448 45.2258 36.5588 45.1291 36.672 45.0323C36.538 44.8833 36.4439 44.7796 36.3264 44.6488ZM24.4158 44.0117C24.334 44.213 24.2469 44.3568 24.2269 44.5094C24.2173 44.5826 24.3766 44.7482 24.3879 44.7421C24.5359 44.6602 24.6717 44.5556 24.838 44.4361C24.697 44.2949 24.5925 44.1903 24.4158 44.0117ZM9.93815 45.0228C10.0792 45.1518 10.1967 45.2598 10.3246 45.3775C10.4587 45.2363 10.564 45.1265 10.6276 45.0602C10.524 44.906 10.4317 44.77 10.3212 44.6061C10.1732 44.7665 10.0705 44.8789 9.93815 45.0228ZM30.8346 45.0167C30.987 45.1535 31.1045 45.259 31.1663 45.3147C31.3352 45.1988 31.4614 45.1125 31.5632 45.0428C31.4457 44.8833 31.3508 44.7543 31.2472 44.6148C31.0827 44.7743 30.9748 44.8807 30.8346 45.0167ZM29.7483 44.9853C29.871 45.1326 29.9676 45.2485 30.0608 45.3601C30.2253 45.2241 30.342 45.1282 30.4508 45.0384C30.3167 44.8763 30.221 44.7595 30.1165 44.6331C29.9737 44.77 29.8719 44.8676 29.7483 44.9853ZM13.9937 42.0488C13.8596 42.183 13.7343 42.3076 13.5933 42.448C13.716 42.5848 13.81 42.6885 13.9336 42.8263C14.092 42.6607 14.2113 42.5351 14.3567 42.3844C14.2322 42.2693 14.1286 42.1734 13.9937 42.0488ZM13.9937 35.7949C13.8631 35.9317 13.743 36.0573 13.6472 36.1584C13.7499 36.2961 13.8352 36.4094 13.9336 36.541C14.0894 36.3876 14.2148 36.2638 14.3671 36.1148C14.2365 36.0032 14.1286 35.9108 13.9937 35.7949ZM27.5225 35.7722C27.3876 35.9195 27.2953 36.0206 27.1996 36.1252C27.3327 36.2699 27.445 36.392 27.5652 36.5218C27.6949 36.3963 27.8002 36.2943 27.9038 36.195C27.7688 36.0459 27.6583 35.923 27.5225 35.7722ZM32.5712 36.4765C32.7253 36.3309 32.8506 36.2133 32.989 36.0834C32.8811 35.9875 32.7784 35.896 32.7462 35.8681C32.5764 35.9893 32.4346 36.0912 32.2822 36.2002C32.3971 36.31 32.4911 36.3998 32.5712 36.4765ZM9.1791 36.2612C9.05984 36.079 8.96322 35.9317 8.86573 35.7827C8.72472 35.9082 8.61939 36.0015 8.50797 36.1C8.65334 36.2568 8.77259 36.3858 8.92666 36.5523C9.04505 36.4164 9.13645 36.31 9.1791 36.2612ZM17.661 45.3627C17.7793 45.2363 17.8864 45.1221 17.9691 45.0332C17.8585 44.8763 17.7706 44.7525 17.6705 44.6113C17.5138 44.7778 17.412 44.8859 17.2832 45.0219C17.4042 45.13 17.4999 45.2171 17.661 45.3627ZM15.1235 40.9157C14.9964 41.0691 14.8824 41.2077 14.7527 41.3637C14.8641 41.4691 14.9634 41.5624 15.0539 41.6478C15.2097 41.5162 15.3342 41.4099 15.4743 41.2913C15.3525 41.1606 15.2654 41.0673 15.1235 40.9157ZM11.0671 38.7253C11.1934 38.8665 11.2935 38.9789 11.4232 39.1245C11.5685 38.9737 11.673 38.8656 11.7844 38.7506C11.6521 38.612 11.5442 38.4987 11.4249 38.374C11.303 38.4934 11.2021 38.5919 11.0671 38.7253ZM27.5234 42.095C27.4059 42.19 27.2918 42.2815 27.19 42.3634C27.3406 42.5386 27.4485 42.6641 27.593 42.8315C27.7131 42.6946 27.8063 42.5892 27.902 42.4802C27.7671 42.3434 27.6452 42.2196 27.5234 42.095ZM12.3929 33.7675C12.647 33.5383 12.8821 33.3273 13.131 33.1042C12.8734 32.9996 12.3337 33.3404 12.2571 33.6237C12.2971 33.6673 12.345 33.7178 12.3929 33.7675ZM33.8386 40.9296C33.6567 41.0891 33.534 41.1963 33.4225 41.294C33.5409 41.4334 33.6288 41.5371 33.7333 41.6592C33.8752 41.5284 34.0014 41.4116 34.1459 41.2783C34.0249 41.1405 33.9396 41.0447 33.8386 40.9296ZM15.1784 34.674C15.0086 34.8291 14.8833 34.9442 14.7388 35.0758C14.8633 35.1917 14.9625 35.2841 15.0382 35.3538C15.1993 35.2309 15.329 35.1325 15.4961 35.0052C15.3629 34.8666 15.2689 34.7681 15.1784 34.674ZM11.0645 45.0018C11.2169 45.1413 11.3318 45.2459 11.4554 45.3592C11.5851 45.2128 11.6773 45.109 11.7548 45.0219C11.6425 44.8781 11.5503 44.7586 11.4441 44.6218C11.2996 44.7682 11.1986 44.8685 11.0645 45.0018ZM26.7365 41.3802C26.6129 41.2068 26.5189 41.0743 26.4083 40.92C26.2699 41.0665 26.1768 41.165 26.0653 41.2826C26.2151 41.4221 26.3378 41.5371 26.4745 41.6635C26.5902 41.5389 26.6764 41.4456 26.7365 41.3802ZM29.73 38.7244C29.8832 38.8691 29.9903 38.9702 30.1087 39.0818C30.2314 38.9528 30.328 38.8508 30.4673 38.7052C30.3315 38.5998 30.2122 38.5065 30.053 38.3827C29.9633 38.476 29.8597 38.5867 29.73 38.7244ZM34.1389 35.0035C34.0188 34.8736 33.9257 34.7733 33.8456 34.6871C33.6776 34.8335 33.5479 34.9459 33.4426 35.0374C33.5418 35.1813 33.6201 35.2946 33.6906 35.3983C33.87 35.2397 33.9927 35.1316 34.1389 35.0035ZM8.09624 42.3887C7.99787 42.2771 7.90647 42.1743 7.81769 42.0732C7.48081 42.3643 7.46689 42.5081 7.75153 42.7897C7.8586 42.665 7.96566 42.5404 8.09624 42.3887ZM32.8794 41.8745C32.996 41.986 33.0944 42.0793 33.2128 42.1926C33.3277 42.0714 33.4217 41.9738 33.5287 41.8614C33.4173 41.7324 33.3277 41.6287 33.2223 41.5066C33.0831 41.6565 32.9882 41.7577 32.8794 41.8745ZM20.0948 43.4687C20.1601 43.0572 19.8659 42.8995 19.6569 42.6877C19.4184 42.8881 19.5003 43.0355 20.0948 43.4687ZM7.92649 46.9978C7.95087 47.0458 7.97524 47.0929 7.99961 47.1408C8.22419 47.1286 8.44965 47.1164 8.67423 47.1042C8.68206 47.0676 8.6899 47.0318 8.69773 46.9952C8.57761 46.8845 8.45835 46.7738 8.34693 46.6719C8.20069 46.786 8.06403 46.8924 7.92649 46.9978ZM27.0533 46.6945C26.8784 46.8209 26.7399 46.9203 26.6015 47.0196C26.6172 47.0458 26.6329 47.0719 26.6486 47.0972C26.8731 47.0972 27.0986 47.0972 27.4189 47.0972C27.2413 46.9011 27.1334 46.7826 27.0533 46.6945ZM14.9468 47.1112C14.7849 46.9098 14.6761 46.7747 14.5534 46.6222C14.3984 46.7852 14.2818 46.9072 14.0877 47.1112C14.4333 47.1112 14.657 47.1112 14.9468 47.1112ZM26.6181 35.5761C26.7835 35.7164 26.8984 35.8132 27.0185 35.9152C27.1404 35.7775 27.2231 35.6842 27.2561 35.6467C27.1673 35.4951 27.0968 35.373 27.0376 35.2719C26.8749 35.3896 26.7617 35.4715 26.6181 35.5761ZM8.29035 42.1926C8.44268 42.0653 8.54192 41.9825 8.66726 41.8779C8.54714 41.7455 8.44791 41.6365 8.33213 41.5092C8.19373 41.6609 8.10146 41.7629 7.99961 41.8745C8.11103 41.9956 8.19808 42.0915 8.29035 42.1926ZM32.7688 47.1033C33.1118 47.1033 33.3338 47.1033 33.5557 47.1033C33.5731 47.0702 33.5897 47.0371 33.6071 47.0031C33.4722 46.895 33.3372 46.7869 33.1797 46.6605C33.0683 46.7808 32.9534 46.9046 32.7688 47.1033ZM14.8929 35.6031C14.7405 35.4584 14.6413 35.3643 14.5534 35.2815C14.4219 35.3922 14.3227 35.475 14.2496 35.5369C14.3471 35.6894 14.4272 35.8132 14.5133 35.9465C14.6726 35.8027 14.7684 35.7164 14.8929 35.6031ZM14.8781 41.8631C14.7475 41.7385 14.6552 41.6496 14.5377 41.538C14.4115 41.6478 14.3009 41.7446 14.1826 41.8474C14.3323 41.9895 14.4263 42.0784 14.5394 42.1856C14.65 42.0802 14.7492 41.9851 14.8781 41.8631ZM26.6625 41.8788C26.7835 41.9913 26.8836 42.0845 27.0037 42.1961C27.1212 42.0662 27.2109 41.966 27.2953 41.8736C27.1891 41.7437 27.1073 41.6435 26.9758 41.4831C26.8618 41.626 26.7756 41.735 26.6625 41.8788ZM11.4232 32.8192C11.5433 32.7137 11.639 32.6283 11.7209 32.5568C11.6016 32.3851 11.5111 32.2561 11.4101 32.1097C11.2926 32.2221 11.1916 32.3197 11.0689 32.4374C11.1899 32.5681 11.2926 32.6788 11.4232 32.8192ZM33.5279 35.5927C33.4217 35.4802 33.325 35.3783 33.2397 35.2876C33.1074 35.3983 32.9943 35.4924 32.8933 35.577C33.0056 35.713 33.0883 35.8141 33.2101 35.9631C33.332 35.8219 33.4225 35.7156 33.5279 35.5927ZM24.4654 36.4181C24.7379 36.1462 25.006 35.8777 25.2889 35.5944C24.6656 35.7644 24.4358 35.9971 24.4654 36.4181ZM23.8883 46.7172C23.7534 46.8366 23.6132 46.9595 23.4278 47.1225C23.7586 47.1225 24.0023 47.1225 24.2835 47.1225C24.1303 46.9656 24.0102 46.8418 23.8883 46.7172ZM17.2257 47.1129C17.5313 47.1129 17.7837 47.1129 18.1101 47.1129C17.9177 46.9307 17.7854 46.8061 17.7245 46.7494C17.5408 46.8828 17.4016 46.9848 17.2257 47.1129ZM35.7937 33.4433C35.7937 33.1556 35.7937 32.929 35.7937 32.5995C35.6118 32.7895 35.4934 32.9124 35.3411 33.0711C35.4777 33.1835 35.5857 33.2724 35.7937 33.4433ZM21.101 47.1033C21.1176 47.0711 21.1333 47.0388 21.1498 47.0074C21.0192 46.9028 20.8887 46.7974 20.7346 46.6727C20.624 46.7965 20.5152 46.9194 20.3516 47.1033C20.6649 47.1033 20.8826 47.1033 21.101 47.1033ZM11.3962 46.6919C11.2752 46.82 11.1516 46.9525 10.9801 47.1347C11.3222 47.1347 11.5755 47.1347 11.8645 47.1347C11.7008 46.9804 11.5659 46.8523 11.3962 46.6919ZM24.4741 38.9371C24.4489 38.9589 24.4228 38.9798 24.3975 39.0016C24.3975 39.2125 24.3975 39.4235 24.3975 39.6335C24.4323 39.6501 24.4663 39.6666 24.5011 39.6832C24.6047 39.5655 24.7074 39.4479 24.7831 39.3624C24.6647 39.2003 24.5699 39.0687 24.4741 38.9371ZM24.3984 38.4655C24.4236 38.4821 24.4489 38.4978 24.4741 38.5144C24.5847 38.3941 24.6952 38.2738 24.8301 38.1273C24.6943 38.0097 24.5786 37.9086 24.3984 37.7526C24.3984 38.0541 24.3984 38.2598 24.3984 38.4655ZM8.14063 41.3811C7.9822 41.2103 7.87427 41.0935 7.76633 40.9776C7.73238 40.988 7.69843 40.9985 7.66361 41.0089C7.68711 41.2059 7.70975 41.4029 7.73325 41.599C7.86208 41.5302 7.99091 41.4613 8.14063 41.3811ZM29.6673 47.1129C29.9894 47.1129 30.2358 47.1129 30.5404 47.1129C30.3698 46.9333 30.2479 46.8061 30.1652 46.7189C29.9946 46.8532 29.8519 46.9665 29.6673 47.1129ZM36.3099 39.0626C36.3456 39.0443 36.3821 39.026 36.4178 39.0077C36.4056 38.8098 36.3935 38.612 36.3813 38.4141C36.3508 38.4063 36.3195 38.3976 36.289 38.3897C36.1845 38.5021 36.0801 38.6146 35.9582 38.7453C36.094 38.8682 36.202 38.9659 36.3099 39.0626ZM19.6413 41.0438C20.0539 40.689 20.0687 40.6559 19.9311 40.391C19.4437 40.8407 19.4437 40.8407 19.6413 41.0438ZM36.1314 36.0093C36.1053 35.7164 36.0862 35.509 36.0618 35.2371C35.8921 35.3817 35.7885 35.4715 35.7084 35.5395C35.8555 35.7025 35.9626 35.821 36.1314 36.0093ZM8.61678 35.6005C8.5306 35.4942 8.44268 35.387 8.286 35.1935C8.26163 35.4959 8.24683 35.6851 8.23203 35.8742C8.27381 35.8882 8.31559 35.903 8.35825 35.9169C8.44529 35.8097 8.53321 35.7025 8.61678 35.6005ZM19.4106 36.5488C19.5917 36.724 19.7214 36.8496 19.8511 36.9751C19.8815 36.9594 19.912 36.9428 19.9433 36.9271C19.865 36.7702 19.7953 36.6081 19.6996 36.4626C19.6857 36.4416 19.5429 36.5079 19.4106 36.5488ZM8.70905 34.4944C8.60633 34.3863 8.51232 34.287 8.37914 34.1467C8.36347 34.4081 8.35215 34.5903 8.33736 34.8405C8.48446 34.7036 8.58457 34.6112 8.70905 34.4944Z" fill="#4F7363"/>
<path d="M7.65676 43.9716C7.59409 43.8138 7.5288 43.6465 7.46265 43.48C7.48876 43.4643 7.51488 43.4486 7.54099 43.4321C7.70638 43.6256 7.87264 43.8199 8.06153 44.0405C7.90746 44.166 7.70899 44.329 7.46613 44.5286C7.53403 44.3316 7.59235 44.1599 7.65676 43.9716Z" fill="#4F7363"/>
<path d="M7.46075 45.435C7.73408 45.6721 7.91426 45.8281 8.13188 46.0164C7.9073 46.2125 7.71493 46.3799 7.43115 46.6265C7.533 46.3589 7.59828 46.1855 7.65834 46.0295C7.60351 45.8656 7.54606 45.693 7.46075 45.435Z" fill="#4F7363"/>
<path d="M15.8792 41.8343C16.4537 41.2617 17.0456 40.6716 17.634 40.0859C18.2225 40.6838 18.8222 41.2931 19.4133 41.8936C18.8466 42.4541 18.246 43.0476 17.6506 43.636C17.0821 43.0572 16.4885 42.4532 15.8792 41.8343ZM16.2726 41.8317C16.7444 42.3251 17.204 42.8062 17.6662 43.2891C18.1389 42.8088 18.6063 42.3338 19.0564 41.8762C18.5898 41.3959 18.1163 40.9096 17.6732 40.4537C17.1901 40.9287 16.7148 41.3968 16.2726 41.8317Z" fill="#4F7363"/>
<path d="M11.425 37.424C10.8209 36.8173 10.2212 36.2159 9.62402 35.6171C10.2342 35.0157 10.8444 34.4134 11.4546 33.8111C12.0326 34.3933 12.6376 35.0035 13.2373 35.6075C12.648 36.1985 12.0492 36.799 11.425 37.424ZM11.4659 34.1911C10.9828 34.6696 10.5006 35.1473 10.0375 35.6058C10.4928 36.0695 10.9611 36.548 11.432 37.0283C11.9099 36.5454 12.386 36.0642 12.8639 35.5814C12.393 35.1124 11.9177 34.64 11.4659 34.1911Z" fill="#4F7363"/>
<path d="M11.4057 43.6587C10.8277 43.0808 10.2332 42.4881 9.64648 41.9024C10.2576 41.3053 10.8686 40.7074 11.4762 40.1138C12.029 40.6708 12.627 41.2739 13.2076 41.8597C12.62 42.4463 12.0133 43.052 11.4057 43.6587ZM12.8437 41.8509C12.3737 41.3881 11.8914 40.9139 11.4536 40.4825C10.9783 40.9392 10.49 41.409 9.99815 41.8823C10.4769 42.3574 10.9513 42.8289 11.4309 43.3048C11.8949 42.8272 12.3597 42.3486 12.8437 41.8509Z" fill="#4F7363"/>
<path d="M30.0739 37.3987C29.5072 36.8173 28.9144 36.2098 28.3242 35.6049C28.9161 35.0383 29.5333 34.4491 30.14 33.8686C30.6675 34.4108 31.2647 35.0253 31.8557 35.6345C31.2977 36.1871 30.6884 36.7903 30.0739 37.3987ZM31.5093 35.618C31.0349 35.1368 30.557 34.6522 30.0965 34.185C29.6386 34.6452 29.1599 35.1281 28.7133 35.577C29.1755 36.0433 29.6526 36.5227 30.1217 36.9951C30.5805 36.5401 31.0549 36.0695 31.5093 35.618Z" fill="#4F7363"/>
<path d="M18.6332 41.8204C18.2728 42.1952 17.9595 42.5221 17.6418 42.8524C17.3258 42.5265 17.0176 42.2083 16.6755 41.8562C16.9506 41.5755 17.2344 41.2739 17.5373 40.9915C17.5808 40.9514 17.7436 40.975 17.8011 41.0264C18.0866 41.2792 18.3555 41.552 18.6332 41.8204ZM17.0986 41.7995C17.3005 42.0331 17.479 42.2379 17.6365 42.4201C17.8385 42.2345 18.0378 42.0506 18.1945 41.9067C18.0169 41.681 17.8437 41.4605 17.6757 41.246C17.4372 41.4753 17.2483 41.6566 17.0986 41.7995Z" fill="#4F7363"/>
<path d="M11.4075 36.5253C11.1142 36.229 10.7964 35.9073 10.4805 35.5883C10.7921 35.2824 11.1142 34.9677 11.4397 34.6487C11.7479 34.9616 12.0639 35.2824 12.3824 35.6049C12.0656 35.9038 11.7366 36.2141 11.4075 36.5253ZM12.0525 35.5752C11.8332 35.3652 11.6286 35.1699 11.4667 35.0148C11.2178 35.2249 11.0184 35.3931 10.8008 35.577C11.0306 35.8036 11.2299 36.0006 11.4458 36.2133C11.6425 36.0058 11.8314 35.808 12.0525 35.5752Z" fill="#4F7363"/>
<path d="M10.5049 41.8788C10.8139 41.5746 11.1351 41.2582 11.4372 40.9619C11.7418 41.2504 12.0682 41.5598 12.4095 41.8841C12.0778 42.2005 11.7497 42.5125 11.418 42.8289C11.1194 42.5186 10.8008 42.1865 10.5049 41.8788ZM11.512 41.3227C11.2613 41.5162 11.0385 41.6879 10.8365 41.844C11.0611 42.0749 11.25 42.2693 11.4058 42.4288C11.6104 42.231 11.8123 42.0366 11.9899 41.8649C11.8097 41.6601 11.6295 41.4561 11.512 41.3227Z" fill="#4F7363"/>
<path d="M30.093 36.5645C29.784 36.2499 29.4654 35.9265 29.0676 35.5221C29.3566 35.2641 29.6526 34.9886 29.9642 34.7315C30.0191 34.6862 30.1714 34.6827 30.2254 34.7263C30.5396 34.9817 30.839 35.2571 31.1594 35.5412C30.7476 35.9378 30.4195 36.2516 30.093 36.5645ZM30.6945 35.6153C30.4943 35.3983 30.3037 35.1908 30.1435 35.0156C29.9076 35.2214 29.6961 35.4044 29.5142 35.563C29.7231 35.7975 29.9041 36.0006 30.1017 36.2211C30.3141 36.0032 30.5056 35.808 30.6945 35.6153Z" fill="#4F7363"/>
<path d="M108.384 18.5109C108.384 18.3215 108.384 18.099 108.384 17.8777C108.384 14.6317 108.38 11.3858 108.391 8.14102C108.392 7.74854 108.261 7.58653 107.868 7.5911C106.794 7.60479 105.718 7.60935 104.643 7.60022C104.351 7.59794 104.229 7.72572 104.228 7.9927C104.228 8.66699 104.233 9.34241 104.241 10.0167C104.245 10.2711 104.375 10.3738 104.634 10.3886C105.59 10.4434 105.59 10.4514 105.59 11.4463C105.59 11.5261 105.59 11.6071 105.59 11.687C105.589 16.5553 105.589 21.4248 105.588 26.2931C105.588 26.9012 105.653 26.9742 106.237 26.9765C106.718 26.9788 107.2 26.9754 107.681 26.9731C108.364 26.9697 108.396 26.924 108.39 26.2338C108.377 24.8042 108.373 23.3735 108.381 21.9439C108.382 21.7694 108.431 21.5298 108.549 21.4351C108.826 21.216 109.83 21.4476 110.034 21.7363C110.189 21.9565 110.328 22.1892 110.487 22.4049C111.415 23.6587 112.352 24.9058 113.274 26.1631C113.616 26.6297 113.954 27.0416 114.629 26.9868C115.204 26.94 115.785 26.9936 116.361 26.9697C116.616 26.9594 116.867 26.8647 117.12 26.8088C117.005 26.6183 116.89 26.4289 116.775 26.2384C116.767 26.2247 116.76 26.2098 116.751 26.1961C116.011 25.1898 115.276 24.1801 114.529 23.1795C113.841 22.2588 113.126 21.3586 112.453 20.4288C112.339 20.2725 112.265 19.9348 112.354 19.807C113.097 18.7356 113.875 17.6894 114.655 16.6443C115.409 15.638 116.181 14.6454 116.933 13.6391C117.011 13.5353 117.077 13.3459 117.032 13.2524C116.992 13.1679 116.792 13.128 116.662 13.1246C116.133 13.1132 115.602 13.1154 115.074 13.1314C114.727 13.1417 114.347 13.1075 114.045 13.2398C113.759 13.3653 113.522 13.6551 113.321 13.9164C112.491 15.0025 111.698 16.1184 110.86 17.2C110.261 17.9769 109.789 19.03 108.384 18.5109Z" fill="#4F7363"/>
<path d="M120.815 21.7785C120.724 21.7443 120.694 21.7249 120.665 21.7238C119.636 21.6872 119.636 21.6872 119.638 20.633C119.639 20.2155 119.649 19.7967 119.635 19.3792C119.624 19.0848 119.745 18.981 120.033 18.989C120.579 19.0038 121.127 18.9639 121.67 19.0027C122.119 19.0357 122.364 18.8794 122.562 18.4721C123.495 16.5577 124.458 14.6592 125.409 12.7538C126.045 11.4805 126.677 10.2039 127.317 8.93173C127.387 8.79139 127.491 8.66703 127.615 8.47992C128.052 9.33219 128.473 10.1537 128.892 10.974C131.308 15.6928 133.724 20.4117 136.137 25.1306C136.487 25.814 136.843 26.494 137.165 27.1911C137.314 27.5139 137.505 27.6292 137.863 27.628C140.35 27.6189 142.838 27.6178 145.325 27.6463C146.355 27.6577 146.991 28.324 146.994 29.3657C147.005 32.8854 147 36.404 146.987 39.9238C146.984 40.8046 146.295 41.4914 145.404 41.553C145.148 41.5701 144.891 41.5587 144.633 41.5587C116.292 41.5598 87.9498 41.5587 59.6091 41.5713C58.5552 41.5713 57.6687 40.8513 57.6835 39.6762C57.7257 36.2865 57.6926 32.8945 57.6983 29.5037C57.7006 28.2476 58.3763 27.6121 59.6536 27.6143C62.8314 27.6189 66.0092 27.6166 69.1859 27.6155C69.2976 27.6155 69.4081 27.6064 69.6144 27.5972C69.6144 21.2571 69.6144 14.925 69.6144 8.59287C69.6668 8.57119 69.7203 8.55066 69.7727 8.52898C72.8024 11.5604 75.8321 14.5907 78.912 17.6723C81.9702 14.6101 84.9885 11.5878 88.0057 8.56663C88.0603 8.58831 88.1139 8.61113 88.1686 8.6328C88.1686 14.9421 88.1686 21.2514 88.1686 27.6189C88.5469 27.6189 88.8306 27.6189 89.1154 27.6189C97.9744 27.6189 106.832 27.6189 115.691 27.6189C115.836 27.6189 115.984 27.5984 116.124 27.6223C117.238 27.8151 117.96 27.4866 118.449 26.3491C119.072 24.8989 119.929 23.5481 120.681 22.1527C120.739 22.0466 120.765 21.9211 120.815 21.7785ZM85.442 15.3563C85.4055 15.3369 85.369 15.3163 85.3326 15.2969C84.6843 15.9587 84.0393 16.6238 83.3865 17.2821C82.0203 18.6581 80.645 20.0261 79.2857 21.4089C79.0009 21.6987 78.8151 21.6633 78.5417 21.386C76.8496 19.6758 75.1417 17.9804 73.4371 16.2816C73.1055 15.9518 72.7671 15.6289 72.3865 15.2593C72.3865 19.4259 72.3865 23.499 72.3865 27.5813C76.7562 27.5813 81.0928 27.5813 85.442 27.5813C85.442 23.4774 85.442 19.4168 85.442 15.3563ZM134.331 27.5984C134.264 27.4409 134.234 27.3508 134.19 27.2686C133.256 25.5173 132.332 23.7614 131.373 22.025C131.28 21.8561 130.97 21.7203 130.759 21.7181C128.642 21.6952 126.525 21.7089 124.408 21.6975C124.073 21.6952 123.892 21.8242 123.74 22.1197C123.264 23.0449 122.758 23.9543 122.262 24.8693C121.778 25.7626 121.294 26.6571 120.783 27.5984C125.324 27.5984 129.791 27.5984 134.331 27.5984ZM99.205 36.9425C99.4363 37.0292 99.5878 37.0726 99.728 37.1411C100.273 37.4092 100.821 37.6704 101.352 37.9625C101.687 38.1462 101.974 38.1759 102.329 37.9831C103.126 37.5506 103.944 37.1547 104.762 36.7634C105.009 36.6448 105.104 36.5033 105.098 36.2226C105.079 35.2768 105.064 34.3287 105.101 33.3829C105.117 32.979 104.961 32.7702 104.631 32.6127C103.887 32.259 103.128 31.9282 102.414 31.5209C102 31.2847 101.687 31.3178 101.292 31.5391C100.636 31.9076 99.949 32.2203 99.1936 32.5968C99.1936 32.0868 99.1936 31.6783 99.1936 31.2425C98.9873 31.255 98.8347 31.2653 98.6774 31.2756C98.6774 34.129 98.6774 36.946 98.6774 39.7891C98.8597 39.7891 99.0113 39.7891 99.205 39.7891C99.205 38.8593 99.205 37.95 99.205 36.9425ZM97.579 38.1599C97.579 36.436 97.5859 34.7679 97.5665 33.0988C97.5653 32.9721 97.4058 32.7976 97.2759 32.7291C96.3872 32.2647 95.4893 31.8164 94.5858 31.3805C94.4661 31.3235 94.2736 31.3109 94.1596 31.3668C93.2356 31.8209 92.3274 32.3081 91.4011 32.7588C91.0809 32.9139 91.1527 33.1056 91.1721 33.3965C92.177 32.8911 93.0886 32.4268 94.0081 31.9761C94.1551 31.9042 94.3693 31.8107 94.4889 31.8666C95.3082 32.2465 96.1103 32.6629 97.0047 33.1102C96.7495 33.2619 96.582 33.3749 96.4043 33.465C94.7567 34.2956 93.1045 35.1193 91.4592 35.9579C91.3293 36.0241 91.1436 36.2021 91.1618 36.2911C91.196 36.4565 91.3293 36.6562 91.4775 36.736C92.234 37.1422 93.0236 37.4868 93.7711 37.9089C94.1881 38.1439 94.5242 38.193 94.9515 37.934C95.4506 37.6328 95.9986 37.4115 96.5273 37.1593C96.6732 37.0897 96.8259 37.0384 97.0355 36.9551C97.0355 37.4035 97.0355 37.7697 97.0355 38.1599C97.2201 38.1599 97.3728 38.1599 97.579 38.1599ZM82.7461 33.3486C82.6322 33.1398 82.5775 32.8672 82.4214 32.7827C81.5155 32.2921 80.5892 31.8392 79.6617 31.3897C79.5421 31.3315 79.3518 31.3121 79.239 31.3668C78.324 31.8095 77.4136 32.2636 76.5181 32.7439C76.3768 32.8204 76.2344 33.0463 76.2309 33.206C76.2059 34.234 76.2093 35.2631 76.2321 36.2911C76.2355 36.4394 76.3597 36.6516 76.4873 36.7201C77.376 37.1913 78.275 37.6408 79.1843 38.0709C79.3279 38.1382 79.5603 38.1291 79.7062 38.0595C80.5721 37.6453 81.4175 37.1867 82.2858 36.7794C82.6037 36.6299 82.7359 36.4542 82.6219 36.0846C81.7263 36.5318 80.8399 36.9847 79.9431 37.416C79.7392 37.5141 79.4498 37.6465 79.2811 37.5735C78.4744 37.2221 77.6974 36.8056 76.7767 36.347C78.806 35.327 80.71 34.3709 82.7461 33.3486ZM129.938 18.9673C129.143 17.346 128.376 15.7795 127.583 14.164C126.786 15.7921 126.017 17.362 125.229 18.9673C126.823 18.9673 128.339 18.9673 129.938 18.9673ZM106.715 36.3641C106.97 36.2123 107.11 36.1165 107.261 36.0412C108.915 35.2106 110.575 34.388 112.223 33.5449C112.357 33.4764 112.488 33.2756 112.5 33.1261C112.51 33.0052 112.369 32.8135 112.244 32.7485C111.382 32.2921 110.514 31.8472 109.631 31.433C109.46 31.3532 109.187 31.3668 109.011 31.4467C108.181 31.8232 107.368 32.2385 106.55 32.639C106.29 32.7656 106.136 32.9265 106.145 33.2642C106.171 34.2751 106.142 35.2882 106.168 36.2991C106.171 36.4576 106.311 36.6813 106.452 36.7566C107.305 37.2141 108.172 37.6453 109.046 38.0618C109.192 38.1314 109.422 38.1474 109.565 38.0812C110.456 37.667 111.329 37.2164 112.217 36.7931C112.519 36.6493 112.587 36.4565 112.458 36.1302C111.531 36.5946 110.638 37.0543 109.731 37.4856C109.546 37.5735 109.268 37.6351 109.101 37.5586C108.332 37.2095 107.588 36.8079 106.715 36.3641ZM143.954 33.368C144.087 33.0235 144.031 32.8341 143.712 32.6823C142.839 32.2705 141.988 31.8152 141.117 31.3965C140.984 31.3326 140.773 31.3121 140.645 31.3714C139.767 31.7844 138.895 32.2111 138.037 32.6652C137.871 32.7531 137.682 32.9755 137.677 33.141C137.673 33.2882 137.88 33.5004 138.044 33.5848C139.402 34.2853 140.773 34.9619 142.138 35.6487C142.555 35.8587 142.969 36.0754 143.495 36.347C142.751 36.7258 142.113 37.0133 141.515 37.3658C141.029 37.6533 140.623 37.6271 140.137 37.3521C139.35 36.9049 138.522 36.5295 137.71 36.1234C137.665 36.1656 137.619 36.2078 137.574 36.25C137.701 36.4246 137.79 36.671 137.962 36.7623C138.813 37.2186 139.68 37.6476 140.559 38.0515C140.728 38.1291 140.996 38.1097 141.171 38.0287C142.022 37.6317 142.862 37.2084 143.693 36.7703C143.835 36.6961 144.006 36.4987 143.999 36.3675C143.99 36.2089 143.842 35.9933 143.693 35.9157C142.735 35.4103 141.76 34.9357 140.791 34.4496C139.941 34.0241 139.091 33.5962 138.18 33.1387C138.975 32.7348 139.703 32.3903 140.405 31.9966C140.726 31.8164 140.98 31.8586 141.28 32.0137C142.164 32.4747 143.055 32.9151 143.954 33.368ZM119.449 31.2664C119.449 31.5483 119.449 31.8015 119.449 32.0548C119.451 33.3406 119.444 34.6253 119.463 35.9111C119.467 36.2192 119.395 36.412 119.097 36.5489C118.42 36.8581 117.766 37.2164 117.086 37.5176C116.919 37.5906 116.663 37.5837 116.496 37.5084C115.829 37.2095 115.188 36.857 114.524 36.5501C114.238 36.4177 114.129 36.25 114.134 35.9271C114.154 34.5455 114.146 33.1638 114.146 31.7821C114.146 31.6121 114.129 31.4421 114.119 31.2413C113.914 31.2516 113.763 31.2596 113.581 31.2687C113.581 32.9961 113.576 34.6812 113.591 36.3664C113.592 36.4827 113.72 36.6459 113.832 36.7064C114.364 36.995 114.956 37.1947 115.445 37.5404C116.382 38.2044 117.245 38.2101 118.173 37.5335C118.529 37.2734 118.98 37.1411 119.477 36.9072C119.477 37.408 119.477 37.7845 119.477 38.1976C119.685 38.1804 119.834 38.169 119.995 38.1553C119.995 35.8347 119.995 33.5608 119.995 31.2676C119.816 31.2664 119.664 31.2664 119.449 31.2664ZM69.2759 38.1268C69.2759 37.9602 69.2759 37.788 69.2759 37.6145C69.2759 36.2979 69.2896 34.9813 69.268 33.6658C69.2611 33.2825 69.3546 33.0463 69.7249 32.8854C70.3971 32.5933 71.042 32.2408 71.712 31.9419C71.8579 31.8768 72.0835 31.8734 72.2259 31.9407C72.9164 32.2625 73.5818 32.639 74.2746 32.9527C74.5788 33.0896 74.654 33.2699 74.6506 33.5791C74.638 34.9916 74.6392 36.404 74.6563 37.8165C74.6574 37.9408 74.8112 38.0629 74.8933 38.1861C74.9787 38.0675 75.1371 37.95 75.1382 37.8302C75.1553 36.2888 75.1599 34.7474 75.136 33.2072C75.1337 33.0383 74.9673 32.801 74.8124 32.7154C74.0729 32.3115 73.2958 31.9738 72.5609 31.5619C72.1199 31.3144 71.7599 31.287 71.3087 31.5562C70.6751 31.9339 69.9926 32.2294 69.2554 32.5979C69.2554 31.5722 69.2554 30.6469 69.2554 29.6863C69.0743 29.6988 68.941 29.7091 68.8225 29.7171C68.8019 29.7867 68.786 29.8175 68.786 29.8471C68.7826 32.5123 68.7837 35.1764 68.7746 37.8416C68.7735 38.2078 68.9432 38.2363 69.2759 38.1268ZM121.097 29.7022C121.097 31.9829 121.092 34.2146 121.109 36.4451C121.11 36.5546 121.269 36.7029 121.388 36.7657C122.244 37.2107 123.104 37.6488 123.976 38.0606C124.133 38.1348 124.384 38.1382 124.54 38.0652C125.462 37.6339 126.375 37.1833 127.273 36.7041C127.425 36.6231 127.485 36.3732 127.588 36.2021C127.379 36.1599 127.286 36.185 127.202 36.2272C126.393 36.6299 125.587 37.0384 124.777 37.4388C124.549 37.5518 124.351 37.7286 124.043 37.5586C123.364 37.1844 122.652 36.8718 121.975 36.4942C121.822 36.4097 121.675 36.1667 121.67 35.9921C121.638 35.1581 121.664 34.3207 121.649 33.4855C121.643 33.2106 121.729 33.0577 121.988 32.939C122.652 32.6344 123.302 32.299 123.954 31.9681C124.321 31.7821 124.318 31.7753 124.175 31.3383C123.353 31.7433 122.531 32.1484 121.638 32.5888C121.638 31.5722 121.638 30.6458 121.638 29.7022C121.447 29.7022 121.306 29.7022 121.097 29.7022ZM136.547 36.0857C135.628 36.5466 134.716 36.9916 133.817 37.4605C133.505 37.6237 133.235 37.6328 132.92 37.4662C132.304 37.1388 131.659 36.8615 131.054 36.5158C130.889 36.4211 130.729 36.161 130.721 35.9705C130.688 35.1365 130.694 34.3002 130.73 33.4673C130.738 33.2927 130.893 33.0566 131.048 32.9698C131.658 32.6253 132.311 32.356 132.916 32.0046C133.295 31.7844 133.588 31.8837 133.925 32.0605C134.784 32.5078 135.655 32.9356 136.521 33.3714C136.562 33.3418 136.604 33.3121 136.645 33.2825C136.555 33.1159 136.508 32.8706 136.369 32.7953C135.45 32.299 134.513 31.8346 133.573 31.3771C133.457 31.3212 133.267 31.3246 133.149 31.3805C132.273 31.7958 131.409 32.2351 130.538 32.6595C130.273 32.7884 130.13 32.9504 130.139 33.2825C130.164 34.2773 130.136 35.2734 130.162 36.2682C130.166 36.4257 130.301 36.6493 130.44 36.7235C131.283 37.1753 132.135 37.6111 133.007 38.0059C133.215 38.1006 133.54 38.0926 133.75 37.9979C134.579 37.6214 135.378 37.1776 136.202 36.7874C136.501 36.6436 136.683 36.4896 136.547 36.0857ZM61.3536 29.6885C61.3171 29.7764 61.2943 29.8061 61.2943 29.8346C61.2898 32.0183 61.2829 34.2032 61.2932 36.3869C61.2943 36.5044 61.4163 36.6733 61.5279 36.7315C62.4121 37.1913 63.302 37.6396 64.2033 38.0663C64.3491 38.1348 64.5804 38.1416 64.7251 38.0732C65.6025 37.6602 66.4627 37.2129 67.3332 36.7874C67.6181 36.6482 67.7491 36.4713 67.5816 36.1325C66.6849 36.5843 65.7984 37.0178 64.9257 37.4765C64.6214 37.6362 64.3685 37.6761 64.0472 37.4947C63.4353 37.149 62.8029 36.8387 62.166 36.5432C61.8743 36.4074 61.7706 36.218 61.7752 35.9089C61.7877 35.1056 61.7615 34.3024 61.7945 33.5004C61.8014 33.3235 61.9461 33.0771 62.0988 32.9938C62.7528 32.6367 63.4285 32.3161 64.1076 32.0092C64.4266 31.8654 64.544 31.6783 64.4015 31.3189C63.5379 31.7422 62.689 32.1598 61.7695 32.6105C61.7695 31.595 61.7695 30.6697 61.7695 29.7182C61.6065 29.7068 61.4858 29.6977 61.3536 29.6885ZM83.7864 31.247C83.7511 31.3372 83.7294 31.3668 83.7294 31.3954C83.7249 33.562 83.7226 35.7286 83.7158 37.8941C83.7146 38.2706 83.9379 38.1941 84.2148 38.1485C84.2148 37.9671 84.2148 37.7937 84.2148 37.6214C84.2148 36.2888 84.2251 34.9573 84.2068 33.6247C84.2023 33.2779 84.29 33.0782 84.6273 32.9322C85.2369 32.6675 85.8328 32.364 86.4093 32.0354C86.7671 31.8312 87.0508 31.8529 87.4086 32.0468C88.2643 32.5112 89.1473 32.9253 90.0213 33.3612C90.1694 33.0121 90.0543 32.8398 89.774 32.7063C89.0949 32.3823 88.4033 32.0754 87.7607 31.6897C87.2024 31.3543 86.6896 31.2482 86.1313 31.6327C86.0527 31.6863 85.9718 31.7365 85.8875 31.7799C85.3531 32.0491 84.8176 32.3161 84.2068 32.6219C84.2068 32.113 84.2068 31.7034 84.2068 31.2676C84.0382 31.2596 83.9163 31.2528 83.7864 31.247ZM128.621 31.271C128.621 33.5848 128.621 35.8666 128.621 38.1394C128.97 38.2546 129.088 38.1451 129.085 37.8131C129.074 36.6584 129.082 35.505 129.082 34.3504C129.082 33.327 129.082 32.3047 129.082 31.2459C128.906 31.255 128.774 31.263 128.621 31.271ZM129.06 29.0861C128.875 29.142 128.704 29.1466 128.621 29.2356C128.56 29.3018 128.562 29.5322 128.626 29.5881C128.719 29.6691 128.891 29.6589 129.06 29.6931C129.06 29.4809 129.06 29.3406 129.06 29.0861Z" fill="#4F7363"/>
<path d="M108.384 18.5109C109.789 19.0311 110.261 17.9769 110.862 17.1988C111.699 16.1172 112.493 15.0014 113.324 13.9152C113.524 13.6528 113.761 13.363 114.047 13.2387C114.349 13.1063 114.728 13.1417 115.076 13.1303C115.605 13.1143 116.134 13.112 116.664 13.1234C116.795 13.1257 116.995 13.1668 117.035 13.2512C117.079 13.3448 117.013 13.5342 116.935 13.638C116.182 14.6443 115.41 15.6369 114.658 16.6432C113.877 17.6871 113.099 18.7345 112.356 19.8058C112.267 19.9336 112.341 20.2713 112.455 20.4276C113.129 21.3575 113.843 22.2588 114.531 23.1784C115.279 24.179 116.014 25.1887 116.753 26.195C116.762 26.2075 116.769 26.2235 116.777 26.2372C116.892 26.4277 117.007 26.6171 117.122 26.8077C116.869 26.8636 116.619 26.9583 116.363 26.9685C115.787 26.9925 115.206 26.9389 114.632 26.9856C113.956 27.0404 113.62 26.6297 113.277 26.1619C112.355 24.9046 111.417 23.6576 110.49 22.4037C110.329 22.1869 110.191 21.9553 110.036 21.7351C109.832 21.4465 108.829 21.2137 108.552 21.4339C108.433 21.5275 108.384 21.7682 108.383 21.9428C108.375 23.3723 108.38 24.803 108.392 26.2326C108.398 26.9229 108.367 26.9685 107.683 26.9719C107.203 26.9742 106.721 26.9777 106.24 26.9754C105.656 26.9731 105.59 26.9001 105.59 26.292C105.591 21.4236 105.591 16.5542 105.593 11.6859C105.593 11.606 105.593 11.525 105.593 11.4451C105.593 10.4514 105.593 10.4434 104.637 10.3875C104.377 10.3727 104.246 10.2711 104.244 10.0155C104.236 9.34126 104.229 8.66583 104.23 7.99154C104.23 7.72457 104.353 7.59678 104.646 7.59907C105.72 7.60819 106.796 7.60477 107.87 7.58994C108.263 7.58537 108.394 7.74625 108.393 8.13986C108.382 11.3858 108.386 14.6317 108.386 17.8765C108.384 18.099 108.384 18.3215 108.384 18.5109Z" fill="#4F7363"/>
<path d="M104.16 19.8229C104.239 23.7511 101.075 27.2504 96.5591 27.0381C93.0258 26.8727 90.0701 24.244 89.7898 20.3158C89.489 16.1092 92.9791 12.7618 96.8679 12.7047C100.753 12.6477 104.248 15.8571 104.16 19.8229ZM92.5848 20.0192C92.6691 22.4802 94.7178 24.341 97.0194 24.3056C99.525 24.2668 101.427 22.1698 101.397 19.8401C101.37 17.7077 99.7255 15.2342 96.4212 15.5068C94.4865 15.6666 92.4675 17.5753 92.5848 20.0192Z" fill="#4F7363"/>
<path d="M99.2254 34.7154C98.8266 33.409 99.557 32.8717 100.628 32.3731C101.483 31.976 102.186 31.7444 103.012 32.3685C103.449 32.6994 104.164 32.7838 104.427 33.19C104.679 33.5779 104.441 34.2533 104.536 34.7804C104.758 36.0081 104.21 36.5877 103.121 37.0942C102.204 37.5209 101.485 37.6384 100.646 37.068C100.22 36.7782 99.557 36.6869 99.3234 36.307C99.0853 35.9191 99.2414 35.2881 99.2254 34.7633C99.2243 34.7473 99.2254 34.7314 99.2254 34.7154Z" fill="#4F7363"/>
<path d="M91.8535 36.2682C93.5376 35.4228 95.2228 34.5774 97.0196 33.6761C97.0196 34.5877 97.0276 35.4091 97.0082 36.2306C97.0059 36.3139 96.8544 36.4166 96.7519 36.4702C96.0488 36.8318 95.3424 37.189 94.6314 37.5335C94.5141 37.5906 94.3363 37.6351 94.2326 37.586C93.4305 37.2118 92.6409 36.8125 91.8467 36.4223C91.849 36.3709 91.8512 36.3196 91.8535 36.2682Z" fill="#4F7363"/>
<path d="M76.7869 35.7947C76.7869 34.8877 76.7789 34.1027 76.7971 33.3178C76.7994 33.2105 76.9134 33.0611 77.0148 33.0086C77.7645 32.6207 78.5222 32.2476 79.2834 31.8825C79.3665 31.8426 79.5033 31.8448 79.5876 31.8859C80.3772 32.2681 81.16 32.664 82.0977 33.1318C80.2701 34.0491 78.5655 34.9037 76.7869 35.7947Z" fill="#4F7363"/>
<path d="M111.974 33.1421C110.161 34.0491 108.454 34.9026 106.65 35.805C106.65 34.9003 106.641 34.1187 106.661 33.3383C106.664 33.2345 106.797 33.0965 106.904 33.0394C107.632 32.6572 108.368 32.2898 109.104 31.9247C109.195 31.8791 109.332 31.8209 109.405 31.8563C110.227 32.2556 111.04 32.6709 111.974 33.1421Z" fill="#4F7363"/>
</svg>
